<svg width="428" height="926" viewBox="0 0 428 926" fill="none" xmlns="http://www.w3.org/2000/svg">
<rect width="428" height="926" fill="#E3F6E3"/>
<path d="M161.75 196.368C148.7 199.316 145.655 208.408 142.639 216.027L145.38 217L146.757 213.611C147.453 213.861 148.178 214.053 148.7 214.053C164.65 214.053 169 189 169 189C167.55 191.947 157.4 192.316 150.15 193.789C142.9 195.263 140 201.526 140 204.474C140 207.421 142.538 210 142.538 210C147.25 196.368 161.75 196.368 161.75 196.368Z" fill="#53A1A1"/>
<path d="M100.75 573.368C87.7 576.316 84.655 585.408 81.639 593.027L84.3795 594L85.757 590.611C86.453 590.861 87.178 591.053 87.7 591.053C103.65 591.053 108 566 108 566C106.55 568.947 96.4 569.316 89.15 570.789C81.9 572.263 79 578.526 79 581.474C79 584.421 81.5375 587 81.5375 587C86.25 573.368 100.75 573.368 100.75 573.368Z" fill="#53A1A1"/>
<path d="M175.75 272.368C162.7 275.316 159.655 284.408 156.639 292.027L159.38 293L160.757 289.611C161.453 289.861 162.178 290.053 162.7 290.053C178.65 290.053 183 265 183 265C181.55 267.947 171.4 268.316 164.15 269.789C156.9 271.263 154 277.526 154 280.474C154 283.421 156.538 286 156.538 286C161.25 272.368 175.75 272.368 175.75 272.368Z" fill="#53A1A1"/>
<path d="M304.75 51.4281C291.7 54.3755 288.655 63.4681 285.639 71.0871L288.38 72.0597L289.757 68.6702C290.453 68.9208 291.178 69.1123 291.7 69.1123C307.65 69.1123 312 44.0597 312 44.0597C310.55 47.0071 300.4 47.3755 293.15 48.8492C285.9 50.3229 283 56.586 283 59.5334C283 62.4808 285.538 65.0597 285.538 65.0597C290.25 51.4281 304.75 51.4281 304.75 51.4281Z" fill="#53A1A1"/>
<path d="M114.75 649.368C101.7 652.316 98.655 661.408 95.639 669.027L98.3795 670L99.757 666.611C100.453 666.861 101.178 667.053 101.7 667.053C117.65 667.053 122 642 122 642C120.55 644.947 110.4 645.316 103.15 646.789C95.9 648.263 93 654.526 93 657.474C93 660.421 95.5375 663 95.5375 663C100.25 649.368 114.75 649.368 114.75 649.368Z" fill="#53A1A1"/>
<path d="M132.75 384.105C119.7 386.947 116.655 395.715 113.639 403.062L116.38 404L117.757 400.732C118.453 400.973 119.178 401.158 119.7 401.158C135.65 401.158 140 377 140 377C138.55 379.842 128.4 380.197 121.15 381.618C113.9 383.039 111 389.079 111 391.921C111 394.763 113.538 397.25 113.538 397.25C118.25 384.105 132.75 384.105 132.75 384.105Z" fill="#53A1A1"/>
<path d="M261.75 163.165C248.7 166.007 245.655 174.775 242.639 182.122L245.38 183.06L246.757 179.791C247.453 180.033 248.178 180.218 248.7 180.218C264.65 180.218 269 156.06 269 156.06C267.55 158.902 257.4 159.257 250.15 160.678C242.9 162.099 240 168.139 240 170.981C240 173.823 242.538 176.31 242.538 176.31C247.25 163.165 261.75 163.165 261.75 163.165Z" fill="#53A1A1"/>
<path d="M68.75 317.105C55.7 319.947 52.655 328.715 49.639 336.062L52.3795 337L53.757 333.732C54.453 333.973 55.178 334.158 55.7 334.158C71.65 334.158 76 310 76 310C74.55 312.842 64.4 313.197 57.15 314.618C49.9 316.039 47 322.079 47 324.921C47 327.763 49.5375 330.25 49.5375 330.25C54.25 317.105 68.75 317.105 68.75 317.105Z" fill="#53A1A1"/>
<path d="M197.75 96.165C184.7 99.0071 181.655 107.775 178.639 115.122L181.38 116.06L182.757 112.791C183.453 113.033 184.178 113.218 184.7 113.218C200.65 113.218 205 89.0597 205 89.0597C203.55 91.9018 193.4 92.2571 186.15 93.6781C178.9 95.0992 176 101.139 176 103.981C176 106.823 178.538 109.31 178.538 109.31C183.25 96.165 197.75 96.165 197.75 96.165Z" fill="#53A1A1"/>
<path d="M71.75 761.105C58.7 763.947 55.655 772.715 52.639 780.062L55.3795 781L56.757 777.732C57.453 777.973 58.178 778.158 58.7 778.158C74.65 778.158 79 754 79 754C77.55 756.842 67.4 757.197 60.15 758.618C52.9 760.039 50 766.079 50 768.921C50 771.763 52.5375 774.25 52.5375 774.25C57.25 761.105 71.75 761.105 71.75 761.105Z" fill="#53A1A1"/>
<path d="M194.75 398.368C181.7 401.316 178.655 410.408 175.639 418.027L178.38 419L179.757 415.611C180.453 415.861 181.178 416.053 181.7 416.053C197.65 416.053 202 391 202 391C200.55 393.947 190.4 394.316 183.15 395.789C175.9 397.263 173 403.526 173 406.474C173 409.421 175.538 412 175.538 412C180.25 398.368 194.75 398.368 194.75 398.368Z" fill="#53A1A1"/>
<path d="M323.75 177.428C310.7 180.375 307.655 189.468 304.639 197.087L307.38 198.06L308.757 194.67C309.453 194.921 310.178 195.112 310.7 195.112C326.65 195.112 331 170.06 331 170.06C329.55 173.007 319.4 173.375 312.15 174.849C304.9 176.323 302 182.586 302 185.533C302 188.481 304.538 191.06 304.538 191.06C309.25 177.428 323.75 177.428 323.75 177.428Z" fill="#53A1A1"/>
<path d="M133.75 775.368C120.7 778.316 117.655 787.408 114.639 795.027L117.38 796L118.757 792.611C119.453 792.861 120.178 793.053 120.7 793.053C136.65 793.053 141 768 141 768C139.55 770.947 129.4 771.316 122.15 772.789C114.9 774.263 112 780.526 112 783.474C112 786.421 114.538 789 114.538 789C119.25 775.368 133.75 775.368 133.75 775.368Z" fill="#53A1A1"/>
<path d="M283.75 336.368C270.7 339.316 267.655 348.408 264.639 356.027L267.38 357L268.757 353.611C269.453 353.861 270.178 354.053 270.7 354.053C286.65 354.053 291 329 291 329C289.55 331.947 279.4 332.316 272.15 333.789C264.9 335.263 262 341.526 262 344.474C262 347.421 264.538 350 264.538 350C269.25 336.368 283.75 336.368 283.75 336.368Z" fill="#53A1A1"/>
<path d="M222.75 713.368C209.7 716.316 206.655 725.408 203.639 733.027L206.38 734L207.757 730.611C208.453 730.861 209.178 731.053 209.7 731.053C225.65 731.053 230 706 230 706C228.55 708.947 218.4 709.316 211.15 710.789C203.9 712.263 201 718.526 201 721.474C201 724.421 203.538 727 203.538 727C208.25 713.368 222.75 713.368 222.75 713.368Z" fill="#53A1A1"/>
<path d="M386.75 635.368C373.7 638.316 370.655 647.408 367.639 655.027L370.38 656L371.757 652.611C372.453 652.861 373.178 653.053 373.7 653.053C389.65 653.053 394 628 394 628C392.55 630.947 382.4 631.316 375.15 632.789C367.9 634.263 365 640.526 365 643.474C365 646.421 367.538 649 367.538 649C372.25 635.368 386.75 635.368 386.75 635.368Z" fill="#53A1A1"/>
<path d="M341.75 215.368C328.7 218.316 325.655 227.408 322.639 235.027L325.38 236L326.757 232.611C327.453 232.861 328.178 233.053 328.7 233.053C344.65 233.053 349 208 349 208C347.55 210.947 337.4 211.316 330.15 212.789C322.9 214.263 320 220.526 320 223.474C320 226.421 322.538 229 322.538 229C327.25 215.368 341.75 215.368 341.75 215.368Z" fill="#53A1A1"/>
<path d="M280.75 592.368C267.7 595.316 264.655 604.408 261.639 612.027L264.38 613L265.757 609.611C266.453 609.861 267.178 610.053 267.7 610.053C283.65 610.053 288 585 288 585C286.55 587.947 276.4 588.316 269.15 589.789C261.9 591.263 259 597.526 259 600.474C259 603.421 261.538 606 261.538 606C266.25 592.368 280.75 592.368 280.75 592.368Z" fill="#53A1A1"/>
<path d="M72.75 151.368C59.7 154.316 56.655 163.408 53.639 171.027L56.3795 172L57.757 168.611C58.453 168.861 59.178 169.053 59.7 169.053C75.65 169.053 80 144 80 144C78.55 146.947 68.4 147.316 61.15 148.789C53.9 150.263 51 156.526 51 159.474C51 162.421 53.5375 165 53.5375 165C58.25 151.368 72.75 151.368 72.75 151.368Z" fill="#53A1A1"/>
<path d="M283.75 243.368C270.7 246.316 267.655 255.408 264.639 263.027L267.38 264L268.757 260.611C269.453 260.861 270.178 261.053 270.7 261.053C286.65 261.053 291 236 291 236C289.55 238.947 279.4 239.316 272.15 240.789C264.9 242.263 262 248.526 262 251.474C262 254.421 264.538 257 264.538 257C269.25 243.368 283.75 243.368 283.75 243.368Z" fill="#53A1A1"/>
<path d="M222.75 620.368C209.7 623.316 206.655 632.408 203.639 640.027L206.38 641L207.757 637.611C208.453 637.861 209.178 638.053 209.7 638.053C225.65 638.053 230 613 230 613C228.55 615.947 218.4 616.316 211.15 617.789C203.9 619.263 201 625.526 201 628.474C201 631.421 203.538 634 203.538 634C208.25 620.368 222.75 620.368 222.75 620.368Z" fill="#53A1A1"/>
<path d="M385.5 413.368C372 416.316 368.85 425.408 365.73 433.027L368.565 434L369.99 430.611C370.71 430.861 371.46 431.053 372 431.053C388.5 431.053 393 406 393 406C391.5 408.947 381 409.316 373.5 410.789C366 412.263 363 418.526 363 421.474C363 424.421 365.625 427 365.625 427C370.5 413.368 385.5 413.368 385.5 413.368Z" fill="#53A1A1"/>
<path d="M324.5 790.368C311 793.316 307.85 802.408 304.73 810.027L307.565 811L308.99 807.611C309.71 807.861 310.46 808.053 311 808.053C327.5 808.053 332 783 332 783C330.5 785.947 320 786.316 312.5 787.789C305 789.263 302 795.526 302 798.474C302 801.421 304.625 804 304.625 804C309.5 790.368 324.5 790.368 324.5 790.368Z" fill="#53A1A1"/>
<path d="M414.5 840.368C401 843.316 397.85 852.408 394.73 860.027L397.565 861L398.99 857.611C399.71 857.861 400.46 858.053 401 858.053C417.5 858.053 422 833 422 833C420.5 835.947 410 836.316 402.5 837.789C395 839.263 392 845.526 392 848.474C392 851.421 394.625 854 394.625 854C399.5 840.368 414.5 840.368 414.5 840.368Z" fill="#53A1A1"/>
<path d="M337.75 477.105C324.7 479.947 321.655 488.715 318.639 496.062L321.38 497L322.757 493.732C323.453 493.973 324.178 494.158 324.7 494.158C340.65 494.158 345 470 345 470C343.55 472.842 333.4 473.197 326.15 474.618C318.9 476.039 316 482.079 316 484.921C316 487.763 318.538 490.25 318.538 490.25C323.25 477.105 337.75 477.105 337.75 477.105Z" fill="#53A1A1"/>
<path d="M129.75 36.1053C116.7 38.9474 113.655 47.7153 110.639 55.0621L113.38 56L114.757 52.7316C115.453 52.9732 116.178 53.1579 116.7 53.1579C132.65 53.1579 137 29 137 29C135.55 31.8421 125.4 32.1974 118.15 33.6184C110.9 35.0395 108 41.0789 108 43.9211C108 46.7632 110.538 49.25 110.538 49.25C115.25 36.1053 129.75 36.1053 129.75 36.1053Z" fill="#53A1A1"/>
<path d="M276.75 854.105C263.7 856.947 260.655 865.715 257.639 873.062L260.38 874L261.757 870.732C262.453 870.973 263.178 871.158 263.7 871.158C279.65 871.158 284 847 284 847C282.55 849.842 272.4 850.197 265.15 851.618C257.9 853.039 255 859.079 255 861.921C255 864.763 257.538 867.25 257.538 867.25C262.25 854.105 276.75 854.105 276.75 854.105Z" fill="#53A1A1"/>
<path d="M391.095 311.483H364.945C364.56 311.483 364.19 311.636 363.918 311.908C363.646 312.181 363.493 312.55 363.493 312.935V339.085C363.493 339.47 363.646 339.839 363.918 340.112C364.19 340.384 364.56 340.537 364.945 340.537H391.095C391.48 340.537 391.849 340.384 392.122 340.112C392.394 339.839 392.547 339.47 392.547 339.085V312.935C392.547 312.55 392.394 312.181 392.122 311.908C391.849 311.636 391.48 311.483 391.095 311.483ZM389.642 320.199H383.831V326.01H389.642V331.821H383.831V337.632H378.02V331.821H372.209V337.632H366.398V331.821H372.209V326.01H366.398V320.199H372.209V314.388H378.02V320.199H383.831V314.388H389.642V320.199Z" fill="#53A1A1" fill-opacity="0.8"/>
<path d="M372.209 320.199H378.02V326.01H372.209V320.199ZM378.02 326.01H383.831V331.821H378.02V326.01Z" fill="#53A1A1" fill-opacity="0.8"/>
<path d="M330.095 688.483H303.945C303.56 688.483 303.19 688.636 302.918 688.908C302.646 689.18 302.493 689.55 302.493 689.935V716.085C302.493 716.47 302.646 716.839 302.918 717.112C303.19 717.384 303.56 717.537 303.945 717.537H330.095C330.48 717.537 330.849 717.384 331.122 717.112C331.394 716.839 331.547 716.47 331.547 716.085V689.935C331.547 689.55 331.394 689.18 331.122 688.908C330.849 688.636 330.48 688.483 330.095 688.483ZM328.642 697.199H322.831V703.01H328.642V708.821H322.831V714.632H317.02V708.821H311.209V714.632H305.398V708.821H311.209V703.01H305.398V697.199H311.209V691.388H317.02V697.199H322.831V691.388H328.642V697.199Z" fill="#53A1A1" fill-opacity="0.8"/>
<path d="M311.209 697.199H317.02V703.01H311.209V697.199ZM317.02 703.01H322.831V708.821H317.02V703.01Z" fill="#53A1A1" fill-opacity="0.8"/>
<path d="M244.368 285.333H218.219C217.834 285.333 217.464 285.486 217.192 285.759C216.919 286.031 216.766 286.401 216.766 286.786V312.935C216.766 313.321 216.919 313.69 217.192 313.963C217.464 314.235 217.834 314.388 218.219 314.388H244.368C244.753 314.388 245.123 314.235 245.395 313.963C245.668 313.69 245.821 313.321 245.821 312.935V286.786C245.821 286.401 245.668 286.031 245.395 285.759C245.123 285.486 244.753 285.333 244.368 285.333ZM242.915 294.05H237.104V299.861H242.915V305.672H237.104V311.483H231.294V305.672H225.483V311.483H219.672V305.672H225.483V299.861H219.672V294.05H225.483V288.239H231.294V294.05H237.104V288.239H242.915V294.05Z" fill="#53A1A1" fill-opacity="0.8"/>
<path d="M225.483 294.05H231.294V299.861H225.483V294.05ZM231.294 299.861H237.104V305.672H231.294V299.861Z" fill="#53A1A1" fill-opacity="0.8"/>
<path d="M373.368 64.3931H347.219C346.834 64.3931 346.464 64.5461 346.192 64.8185C345.919 65.091 345.766 65.4605 345.766 65.8458V91.995C345.766 92.3803 345.919 92.7498 346.192 93.0223C346.464 93.2947 346.834 93.4478 347.219 93.4478H373.368C373.753 93.4478 374.123 93.2947 374.395 93.0223C374.668 92.7498 374.821 92.3803 374.821 91.995V65.8458C374.821 65.4605 374.668 65.091 374.395 64.8185C374.123 64.5461 373.753 64.3931 373.368 64.3931ZM371.915 73.1095H366.104V78.9204H371.915V84.7314H366.104V90.5423H360.294V84.7314H354.483V90.5423H348.672V84.7314H354.483V78.9204H348.672V73.1095H354.483V67.2985H360.294V73.1095H366.104V67.2985H371.915V73.1095Z" fill="#53A1A1" fill-opacity="0.8"/>
<path d="M354.483 73.1095H360.294V78.9204H354.483V73.1095ZM360.294 78.9204H366.104V84.7314H360.294V78.9204Z" fill="#53A1A1" fill-opacity="0.8"/>
<path d="M183.368 662.333H157.219C156.834 662.333 156.464 662.486 156.192 662.759C155.919 663.031 155.766 663.401 155.766 663.786V689.935C155.766 690.321 155.919 690.69 156.192 690.963C156.464 691.235 156.834 691.388 157.219 691.388H183.368C183.753 691.388 184.123 691.235 184.395 690.963C184.668 690.69 184.821 690.321 184.821 689.935V663.786C184.821 663.401 184.668 663.031 184.395 662.759C184.123 662.486 183.753 662.333 183.368 662.333ZM181.915 671.05H176.104V676.861H181.915V682.672H176.104V688.483H170.294V682.672H164.483V688.483H158.672V682.672H164.483V676.861H158.672V671.05H164.483V665.239H170.294V671.05H176.104V665.239H181.915V671.05Z" fill="#53A1A1" fill-opacity="0.8"/>
<path d="M164.483 671.05H170.294V676.861H164.483V671.05ZM170.294 676.861H176.104V682.672H170.294V676.861Z" fill="#53A1A1" fill-opacity="0.8"/>
<path d="M241.463 189.453H215.313C214.928 189.453 214.559 189.606 214.286 189.878C214.014 190.151 213.861 190.52 213.861 190.905V217.055C213.861 217.44 214.014 217.81 214.286 218.082C214.559 218.354 214.928 218.507 215.313 218.507H241.463C241.848 218.507 242.217 218.354 242.49 218.082C242.762 217.81 242.915 217.44 242.915 217.055V190.905C242.915 190.52 242.762 190.151 242.49 189.878C242.217 189.606 241.848 189.453 241.463 189.453ZM240.01 198.169H234.199V203.98H240.01V209.791H234.199V215.602H228.388V209.791H222.577V215.602H216.766V209.791H222.577V203.98H216.766V198.169H222.577V192.358H228.388V198.169H234.199V192.358H240.01V198.169Z" fill="#53A1A1" fill-opacity="0.8"/>
<path d="M222.577 198.169H228.388V203.98H222.577V198.169ZM228.388 203.98H234.199V209.791H228.388V203.98Z" fill="#53A1A1" fill-opacity="0.8"/>
<path d="M180.463 566.453H154.313C153.928 566.453 153.559 566.606 153.286 566.878C153.014 567.151 152.861 567.52 152.861 567.905V594.055C152.861 594.44 153.014 594.81 153.286 595.082C153.559 595.354 153.928 595.507 154.313 595.507H180.463C180.848 595.507 181.217 595.354 181.49 595.082C181.762 594.81 181.915 594.44 181.915 594.055V567.905C181.915 567.52 181.762 567.151 181.49 566.878C181.217 566.606 180.848 566.453 180.463 566.453ZM179.01 575.169H173.199V580.98H179.01V586.791H173.199V592.602H167.388V586.791H161.577V592.602H155.766V586.791H161.577V580.98H155.766V575.169H161.577V569.358H167.388V575.169H173.199V569.358H179.01V575.169Z" fill="#53A1A1" fill-opacity="0.8"/>
<path d="M161.577 575.169H167.388V580.98H161.577V575.169ZM167.388 580.98H173.199V586.791H167.388V580.98Z" fill="#53A1A1" fill-opacity="0.8"/>
<path d="M129.602 235.94H103.453C103.067 235.94 102.698 236.093 102.425 236.366C102.153 236.638 102 237.008 102 237.393V263.542C102 263.928 102.153 264.297 102.425 264.57C102.698 264.842 103.067 264.995 103.453 264.995H129.602C129.987 264.995 130.357 264.842 130.629 264.57C130.902 264.297 131.055 263.928 131.055 263.542V237.393C131.055 237.008 130.902 236.638 130.629 236.366C130.357 236.093 129.987 235.94 129.602 235.94ZM128.149 244.657H122.338V250.468H128.149V256.279H122.338V262.09H116.527V256.279H110.716V262.09H104.905V256.279H110.716V250.468H104.905V244.657H110.716V238.846H116.527V244.657H122.338V238.846H128.149V244.657Z" fill="#53A1A1" fill-opacity="0.8"/>
<path d="M110.716 244.657H116.527V250.468H110.716V244.657ZM116.527 250.468H122.338V256.279H116.527V250.468Z" fill="#53A1A1" fill-opacity="0.8"/>
<path d="M258.602 15H232.453C232.067 15 231.698 15.1531 231.425 15.4255C231.153 15.6979 231 16.0674 231 16.4527V42.602C231 42.9873 231.153 43.3568 231.425 43.6292C231.698 43.9017 232.067 44.0547 232.453 44.0547H258.602C258.987 44.0547 259.357 43.9017 259.629 43.6292C259.902 43.3568 260.055 42.9873 260.055 42.602V16.4527C260.055 16.0674 259.902 15.6979 259.629 15.4255C259.357 15.1531 258.987 15 258.602 15ZM257.149 23.7164H251.338V29.5274H257.149V35.3383H251.338V41.1493H245.527V35.3383H239.716V41.1493H233.905V35.3383H239.716V29.5274H233.905V23.7164H239.716V17.9055H245.527V23.7164H251.338V17.9055H257.149V23.7164Z" fill="#53A1A1" fill-opacity="0.8"/>
<path d="M239.716 23.7164H245.527V29.5274H239.716V23.7164ZM245.527 29.5274H251.338V35.3383H245.527V29.5274Z" fill="#53A1A1" fill-opacity="0.8"/>
<path d="M68.602 190H42.4527C42.0674 190 41.6979 190.153 41.4255 190.425C41.1531 190.698 41 191.067 41 191.453V217.602C41 217.987 41.1531 218.357 41.4255 218.629C41.6979 218.902 42.0674 219.055 42.4527 219.055H68.602C68.9873 219.055 69.3568 218.902 69.6292 218.629C69.9017 218.357 70.0547 217.987 70.0547 217.602V191.453C70.0547 191.067 69.9017 190.698 69.6292 190.425C69.3568 190.153 68.9873 190 68.602 190ZM67.1493 198.716H61.3383V204.527H67.1493V210.338H61.3383V216.149H55.5274V210.338H49.7164V216.149H43.9055V210.338H49.7164V204.527H43.9055V198.716H49.7164V192.905H55.5274V198.716H61.3383V192.905H67.1493V198.716Z" fill="#53A1A1" fill-opacity="0.8"/>
<path d="M49.7164 198.716H55.5274V204.527H49.7164V198.716ZM55.5274 204.527H61.3383V210.338H55.5274V204.527Z" fill="#53A1A1" fill-opacity="0.8"/>
<path d="M68.602 612.94H42.4527C42.0674 612.94 41.6979 613.093 41.4255 613.366C41.1531 613.638 41 614.008 41 614.393V640.542C41 640.928 41.1531 641.297 41.4255 641.57C41.6979 641.842 42.0674 641.995 42.4527 641.995H68.602C68.9873 641.995 69.3568 641.842 69.6292 641.57C69.9017 641.297 70.0547 640.928 70.0547 640.542V614.393C70.0547 614.008 69.9017 613.638 69.6292 613.366C69.3568 613.093 68.9873 612.94 68.602 612.94ZM67.1493 621.657H61.3383V627.468H67.1493V633.279H61.3383V639.09H55.5274V633.279H49.7164V639.09H43.9055V633.279H49.7164V627.468H43.9055V621.657H49.7164V615.846H55.5274V621.657H61.3383V615.846H67.1493V621.657Z" fill="#53A1A1" fill-opacity="0.8"/>
<path d="M49.7164 621.657H55.5274V627.468H49.7164V621.657ZM55.5274 627.468H61.3383V633.279H55.5274V627.468Z" fill="#53A1A1" fill-opacity="0.8"/>
<path d="M75.602 385H49.4527C49.0674 385 48.6979 385.153 48.4255 385.425C48.1531 385.698 48 386.067 48 386.453V412.602C48 412.987 48.1531 413.357 48.4255 413.629C48.6979 413.902 49.0674 414.055 49.4527 414.055H75.602C75.9873 414.055 76.3568 413.902 76.6292 413.629C76.9017 413.357 77.0547 412.987 77.0547 412.602V386.453C77.0547 386.067 76.9017 385.698 76.6292 385.425C76.3568 385.153 75.9873 385 75.602 385ZM74.1493 393.716H68.3383V399.527H74.1493V405.338H68.3383V411.149H62.5274V405.338H56.7164V411.149H50.9055V405.338H56.7164V399.527H50.9055V393.716H56.7164V387.905H62.5274V393.716H68.3383V387.905H74.1493V393.716Z" fill="#53A1A1" fill-opacity="0.8"/>
<path d="M56.7164 393.716H62.5274V399.527H56.7164V393.716ZM62.5274 399.527H68.3383V405.338H62.5274V399.527Z" fill="#53A1A1" fill-opacity="0.8"/>
<path d="M186.259 337.632H160.109C159.724 337.632 159.355 337.785 159.082 338.057C158.81 338.33 158.657 338.699 158.657 339.085V365.234C158.657 365.619 158.81 365.989 159.082 366.261C159.355 366.534 159.724 366.687 160.109 366.687H186.259C186.644 366.687 187.014 366.534 187.286 366.261C187.558 365.989 187.711 365.619 187.711 365.234V339.085C187.711 338.699 187.558 338.33 187.286 338.057C187.014 337.785 186.644 337.632 186.259 337.632ZM184.806 346.348H178.995V352.159H184.806V357.97H178.995V363.781H173.184V357.97H167.373V363.781H161.562V357.97H167.373V352.159H161.562V346.348H167.373V340.537H173.184V346.348H178.995V340.537H184.806V346.348Z" fill="#53A1A1" fill-opacity="0.8"/>
<path d="M167.373 346.348H173.184V352.159H167.373V346.348ZM173.184 352.159H178.995V357.97H173.184V352.159Z" fill="#53A1A1" fill-opacity="0.8"/>
<path d="M315.259 116.692H289.109C288.724 116.692 288.355 116.845 288.082 117.117C287.81 117.389 287.657 117.759 287.657 118.144V144.294C287.657 144.679 287.81 145.048 288.082 145.321C288.355 145.593 288.724 145.746 289.109 145.746H315.259C315.644 145.746 316.014 145.593 316.286 145.321C316.558 145.048 316.711 144.679 316.711 144.294V118.144C316.711 117.759 316.558 117.389 316.286 117.117C316.014 116.845 315.644 116.692 315.259 116.692ZM313.806 125.408H307.995V131.219H313.806V137.03H307.995V142.841H302.184V137.03H296.373V142.841H290.562V137.03H296.373V131.219H290.562V125.408H296.373V119.597H302.184V125.408H307.995V119.597H313.806V125.408Z" fill="#53A1A1" fill-opacity="0.8"/>
<path d="M296.373 125.408H302.184V131.219H296.373V125.408ZM302.184 131.219H307.995V137.03H302.184V131.219Z" fill="#53A1A1" fill-opacity="0.8"/>
<path d="M125.259 714.632H99.1095C98.7242 714.632 98.3547 714.785 98.0822 715.057C97.8098 715.33 97.6567 715.699 97.6567 716.085V742.234C97.6567 742.619 97.8098 742.989 98.0822 743.261C98.3547 743.534 98.7242 743.687 99.1095 743.687H125.259C125.644 743.687 126.014 743.534 126.286 743.261C126.558 742.989 126.711 742.619 126.711 742.234V716.085C126.711 715.699 126.558 715.33 126.286 715.057C126.014 714.785 125.644 714.632 125.259 714.632ZM123.806 723.348H117.995V729.159H123.806V734.97H117.995V740.781H112.184V734.97H106.373V740.781H100.562V734.97H106.373V729.159H100.562V723.348H106.373V717.537H112.184V723.348H117.995V717.537H123.806V723.348Z" fill="#53A1A1" fill-opacity="0.8"/>
<path d="M106.373 723.348H112.184V729.159H106.373V723.348ZM112.184 729.159H117.995V734.97H112.184V729.159Z" fill="#53A1A1" fill-opacity="0.8"/>
<path d="M144.129 429.154H117.98C117.595 429.154 117.225 429.307 116.953 429.58C116.68 429.852 116.527 430.222 116.527 430.607V456.756C116.527 457.142 116.68 457.511 116.953 457.783C117.225 458.056 117.595 458.209 117.98 458.209H144.129C144.515 458.209 144.884 458.056 145.157 457.783C145.429 457.511 145.582 457.142 145.582 456.756V430.607C145.582 430.222 145.429 429.852 145.157 429.58C144.884 429.307 144.515 429.154 144.129 429.154ZM142.677 437.871H136.866V443.682H142.677V449.493H136.866V455.303H131.055V449.493H125.244V455.303H119.433V449.493H125.244V443.682H119.433V437.871H125.244V432.06H131.055V437.871H136.866V432.06H142.677V437.871Z" fill="#53A1A1" fill-opacity="0.8"/>
<path d="M125.244 437.871H131.055V443.682H125.244V437.871ZM131.055 443.682H136.866V449.493H131.055V443.682Z" fill="#53A1A1" fill-opacity="0.8"/>
<path d="M83.1294 806.154H56.9801C56.5948 806.154 56.2253 806.307 55.9529 806.58C55.6804 806.852 55.5274 807.222 55.5274 807.607V833.756C55.5274 834.142 55.6804 834.511 55.9529 834.783C56.2253 835.056 56.5948 835.209 56.9801 835.209H83.1294C83.5147 835.209 83.8842 835.056 84.1566 834.783C84.429 834.511 84.5821 834.142 84.5821 833.756V807.607C84.5821 807.222 84.429 806.852 84.1566 806.58C83.8842 806.307 83.5147 806.154 83.1294 806.154ZM81.6766 814.871H75.8657V820.682H81.6766V826.493H75.8657V832.303H70.0547V826.493H64.2438V832.303H58.4328V826.493H64.2438V820.682H58.4328V814.871H64.2438V809.06H70.0547V814.871H75.8657V809.06H81.6766V814.871Z" fill="#53A1A1" fill-opacity="0.8"/>
<path d="M64.2438 814.871H70.0547V820.682H64.2438V814.871ZM70.0547 820.682H75.8657V826.493H70.0547V820.682Z" fill="#53A1A1" fill-opacity="0.8"/>
<path d="M218.219 469.831H192.07C191.684 469.831 191.315 469.984 191.042 470.256C190.77 470.529 190.617 470.898 190.617 471.284V497.433C190.617 497.818 190.77 498.188 191.042 498.46C191.315 498.733 191.684 498.886 192.07 498.886H218.219C218.604 498.886 218.974 498.733 219.246 498.46C219.519 498.188 219.672 497.818 219.672 497.433V471.284C219.672 470.898 219.519 470.529 219.246 470.256C218.974 469.984 218.604 469.831 218.219 469.831ZM216.766 478.547H210.955V484.358H216.766V490.169H210.955V495.98H205.144V490.169H199.333V495.98H193.522V490.169H199.333V484.358H193.522V478.547H199.333V472.736H205.144V478.547H210.955V472.736H216.766V478.547Z" fill="#53A1A1" fill-opacity="0.8"/>
<path d="M199.333 478.547H205.144V484.358H199.333V478.547ZM205.144 484.358H210.955V490.169H205.144V484.358Z" fill="#53A1A1" fill-opacity="0.8"/>
<path d="M157.219 846.831H131.07C130.684 846.831 130.315 846.984 130.042 847.256C129.77 847.529 129.617 847.898 129.617 848.284V874.433C129.617 874.818 129.77 875.188 130.042 875.46C130.315 875.732 130.684 875.886 131.07 875.886H157.219C157.604 875.886 157.974 875.732 158.246 875.46C158.519 875.188 158.672 874.818 158.672 874.433V848.284C158.672 847.898 158.519 847.529 158.246 847.256C157.974 846.984 157.604 846.831 157.219 846.831ZM155.766 855.547H149.955V861.358H155.766V867.169H149.955V872.98H144.144V867.169H138.333V872.98H132.522V867.169H138.333V861.358H132.522V855.547H138.333V849.736H144.144V855.547H149.955V849.736H155.766V855.547Z" fill="#53A1A1" fill-opacity="0.8"/>
<path d="M138.333 855.547H144.144V861.358H138.333V855.547ZM144.144 861.358H149.955V867.169H144.144V861.358Z" fill="#53A1A1" fill-opacity="0.8"/>
<path d="M328.627 400.099H302.478C302.092 400.099 301.723 400.253 301.45 400.525C301.178 400.797 301.025 401.167 301.025 401.552V427.701C301.025 428.087 301.178 428.456 301.45 428.729C301.723 429.001 302.092 429.154 302.478 429.154H328.627C329.012 429.154 329.382 429.001 329.654 428.729C329.927 428.456 330.08 428.087 330.08 427.701V401.552C330.08 401.167 329.927 400.797 329.654 400.525C329.382 400.253 329.012 400.099 328.627 400.099ZM327.174 408.816H321.363V414.627H327.174V420.438H321.363V426.249H315.552V420.438H309.741V426.249H303.93V420.438H309.741V414.627H303.93V408.816H309.741V403.005H315.552V408.816H321.363V403.005H327.174V408.816Z" fill="#53A1A1" fill-opacity="0.8"/>
<path d="M309.741 408.816H315.552V414.627H309.741V408.816ZM315.552 414.627H321.363V420.438H315.552V414.627Z" fill="#53A1A1" fill-opacity="0.8"/>
<path d="M267.627 777.099H241.478C241.092 777.099 240.723 777.253 240.45 777.525C240.178 777.797 240.025 778.167 240.025 778.552V804.701C240.025 805.087 240.178 805.456 240.45 805.729C240.723 806.001 241.092 806.154 241.478 806.154H267.627C268.012 806.154 268.382 806.001 268.654 805.729C268.927 805.456 269.08 805.087 269.08 804.701V778.552C269.08 778.167 268.927 777.797 268.654 777.525C268.382 777.253 268.012 777.099 267.627 777.099ZM266.174 785.816H260.363V791.627H266.174V797.438H260.363V803.249H254.552V797.438H248.741V803.249H242.93V797.438H248.741V791.627H242.93V785.816H248.741V780.005H254.552V785.816H260.363V780.005H266.174V785.816Z" fill="#53A1A1" fill-opacity="0.8"/>
<path d="M248.741 785.816H254.552V791.627H248.741V785.816ZM254.552 791.627H260.363V797.438H254.552V791.627Z" fill="#53A1A1" fill-opacity="0.8"/>
<path d="M405.602 721H379.453C379.067 721 378.698 721.153 378.425 721.425C378.153 721.698 378 722.067 378 722.453V748.602C378 748.987 378.153 749.357 378.425 749.629C378.698 749.902 379.067 750.055 379.453 750.055H405.602C405.987 750.055 406.357 749.902 406.629 749.629C406.902 749.357 407.055 748.987 407.055 748.602V722.453C407.055 722.067 406.902 721.698 406.629 721.425C406.357 721.153 405.987 721 405.602 721ZM404.149 729.716H398.338V735.527H404.149V741.338H398.338V747.149H392.527V741.338H386.716V747.149H380.905V741.338H386.716V735.527H380.905V729.716H386.716V723.905H392.527V729.716H398.338V723.905H404.149V729.716Z" fill="#53A1A1" fill-opacity="0.8"/>
<path d="M386.716 729.716H392.527V735.527H386.716V729.716ZM392.527 735.527H398.338V741.338H392.527V735.527Z" fill="#53A1A1" fill-opacity="0.8"/>
<path d="M392.547 503.244H366.398C366.013 503.244 365.643 503.397 365.371 503.669C365.098 503.942 364.945 504.311 364.945 504.697V530.846C364.945 531.231 365.098 531.601 365.371 531.873C365.643 532.145 366.013 532.298 366.398 532.298H392.547C392.933 532.298 393.302 532.145 393.575 531.873C393.847 531.601 394 531.231 394 530.846V504.697C394 504.311 393.847 503.942 393.575 503.669C393.302 503.397 392.933 503.244 392.547 503.244ZM391.095 511.96H385.284V517.771H391.095V523.582H385.284V529.393H379.473V523.582H373.662V529.393H367.851V523.582H373.662V517.771H367.851V511.96H373.662V506.149H379.473V511.96H385.284V506.149H391.095V511.96Z" fill="#53A1A1" fill-opacity="0.8"/>
<path d="M373.662 511.96H379.473V517.771H373.662V511.96ZM379.473 517.771H385.284V523.582H379.473V517.771Z" fill="#53A1A1" fill-opacity="0.8"/>
<path d="M184.547 62.2438H158.398C158.013 62.2438 157.643 62.3968 157.371 62.6693C157.098 62.9417 156.945 63.3112 156.945 63.6965V89.8458C156.945 90.2311 157.098 90.6006 157.371 90.873C157.643 91.1454 158.013 91.2985 158.398 91.2985H184.547C184.933 91.2985 185.302 91.1454 185.575 90.873C185.847 90.6006 186 90.2311 186 89.8458V63.6965C186 63.3112 185.847 62.9417 185.575 62.6693C185.302 62.3968 184.933 62.2438 184.547 62.2438ZM183.095 70.9602H177.284V76.7711H183.095V82.5821H177.284V88.393H171.473V82.5821H165.662V88.393H159.851V82.5821H165.662V76.7711H159.851V70.9602H165.662V65.1492H171.473V70.9602H177.284V65.1492H183.095V70.9602Z" fill="#53A1A1" fill-opacity="0.8"/>
<path d="M165.662 70.9602H171.473V76.7711H165.662V70.9602ZM171.473 76.7711H177.284V82.5821H171.473V76.7711Z" fill="#53A1A1" fill-opacity="0.8"/>
<path d="M331.547 880.244H305.398C305.013 880.244 304.643 880.397 304.371 880.669C304.098 880.942 303.945 881.311 303.945 881.697V907.846C303.945 908.231 304.098 908.601 304.371 908.873C304.643 909.145 305.013 909.298 305.398 909.298H331.547C331.933 909.298 332.302 909.145 332.575 908.873C332.847 908.601 333 908.231 333 907.846V881.697C333 881.311 332.847 880.942 332.575 880.669C332.302 880.397 331.933 880.244 331.547 880.244ZM330.095 888.96H324.284V894.771H330.095V900.582H324.284V906.393H318.473V900.582H312.662V906.393H306.851V900.582H312.662V894.771H306.851V888.96H312.662V883.149H318.473V888.96H324.284V883.149H330.095V888.96Z" fill="#53A1A1" fill-opacity="0.8"/>
<path d="M312.662 888.96H318.473V894.771H312.662V888.96ZM318.473 894.771H324.284V900.582H318.473V894.771Z" fill="#53A1A1" fill-opacity="0.8"/>
<path d="M391.095 188H364.945C364.56 188 364.19 188.153 363.918 188.425C363.646 188.698 363.493 189.067 363.493 189.453V215.602C363.493 215.987 363.646 216.357 363.918 216.629C364.19 216.902 364.56 217.055 364.945 217.055H391.095C391.48 217.055 391.849 216.902 392.122 216.629C392.394 216.357 392.547 215.987 392.547 215.602V189.453C392.547 189.067 392.394 188.698 392.122 188.425C391.849 188.153 391.48 188 391.095 188ZM389.642 196.716H383.831V202.527H389.642V208.338H383.831V214.149H378.02V208.338H372.209V214.149H366.398V208.338H372.209V202.527H366.398V196.716H372.209V190.905H378.02V196.716H383.831V190.905H389.642V196.716Z" fill="#53A1A1" fill-opacity="0.8"/>
<path d="M372.209 196.716H378.02V202.527H372.209V196.716ZM378.02 202.527H383.831V208.338H378.02V202.527Z" fill="#53A1A1" fill-opacity="0.8"/>
<path d="M330.095 565H303.945C303.56 565 303.19 565.153 302.918 565.425C302.646 565.698 302.493 566.067 302.493 566.453V592.602C302.493 592.987 302.646 593.357 302.918 593.629C303.19 593.902 303.56 594.055 303.945 594.055H330.095C330.48 594.055 330.849 593.902 331.122 593.629C331.394 593.357 331.547 592.987 331.547 592.602V566.453C331.547 566.067 331.394 565.698 331.122 565.425C330.849 565.153 330.48 565 330.095 565ZM328.642 573.716H322.831V579.527H328.642V585.338H322.831V591.149H317.02V585.338H311.209V591.149H305.398V585.338H311.209V579.527H305.398V573.716H311.209V567.905H317.02V573.716H322.831V567.905H328.642V573.716Z" fill="#53A1A1" fill-opacity="0.8"/>
<path d="M311.209 573.716H317.02V579.527H311.209V573.716ZM317.02 579.527H322.831V585.338H317.02V579.527Z" fill="#53A1A1" fill-opacity="0.8"/>
<path d="M95.602 495H69.4527C69.0674 495 68.6979 495.153 68.4255 495.425C68.1531 495.698 68 496.067 68 496.453V522.602C68 522.987 68.1531 523.357 68.4255 523.629C68.6979 523.902 69.0674 524.055 69.4527 524.055H95.602C95.9873 524.055 96.3568 523.902 96.6292 523.629C96.9017 523.357 97.0547 522.987 97.0547 522.602V496.453C97.0547 496.067 96.9017 495.698 96.6292 495.425C96.3568 495.153 95.9873 495 95.602 495ZM94.1493 503.716H88.3383V509.527H94.1493V515.338H88.3383V521.149H82.5274V515.338H76.7164V521.149H70.9055V515.338H76.7164V509.527H70.9055V503.716H76.7164V497.905H82.5274V503.716H88.3383V497.905H94.1493V503.716Z" fill="#53A1A1" fill-opacity="0.8"/>
<path d="M76.7164 503.716H82.5274V509.527H76.7164V503.716ZM82.5274 509.527H88.3383V515.338H82.5274V509.527Z" fill="#53A1A1" fill-opacity="0.8"/>
<path d="M122.095 124H95.9453C95.56 124 95.1905 124.153 94.918 124.425C94.6456 124.698 94.4925 125.067 94.4925 125.453V151.602C94.4925 151.987 94.6456 152.357 94.918 152.629C95.1905 152.902 95.56 153.055 95.9453 153.055H122.095C122.48 153.055 122.849 152.902 123.122 152.629C123.394 152.357 123.547 151.987 123.547 151.602V125.453C123.547 125.067 123.394 124.698 123.122 124.425C122.849 124.153 122.48 124 122.095 124ZM120.642 132.716H114.831V138.527H120.642V144.338H114.831V150.149H109.02V144.338H103.209V150.149H97.398V144.338H103.209V138.527H97.398V132.716H103.209V126.905H109.02V132.716H114.831V126.905H120.642V132.716Z" fill="#53A1A1" fill-opacity="0.8"/>
<path d="M103.209 132.716H109.02V138.527H103.209V132.716ZM109.02 138.527H114.831V144.338H109.02V138.527Z" fill="#53A1A1" fill-opacity="0.8"/>
<path d="M180.75 510.368C167.7 513.316 164.655 522.408 161.639 530.027L164.38 531L165.757 527.611C166.453 527.861 167.178 528.053 167.7 528.053C183.65 528.053 188 503 188 503C186.55 505.947 176.4 506.316 169.15 507.789C161.9 509.263 159 515.526 159 518.474C159 521.421 161.538 524 161.538 524C166.25 510.368 180.75 510.368 180.75 510.368Z" fill="#53A1A1"/>
<path d="M53.75 456.368C40.7 459.316 37.655 468.408 34.639 476.027L37.3795 477L38.757 473.611C39.453 473.861 40.178 474.053 40.7 474.053C56.65 474.053 61 449 61 449C59.55 451.947 49.4 452.316 42.15 453.789C34.9 455.263 32 461.526 32 464.474C32 467.421 34.5375 470 34.5375 470C39.25 456.368 53.75 456.368 53.75 456.368Z" fill="#53A1A1"/>
<path d="M119.75 887.368C106.7 890.316 103.655 899.408 100.639 907.027L103.38 908L104.757 904.611C105.453 904.861 106.178 905.053 106.7 905.053C122.65 905.053 127 880 127 880C125.55 882.947 115.4 883.316 108.15 884.789C100.9 886.263 98 892.526 98 895.474C98 898.421 100.538 901 100.538 901C105.25 887.368 119.75 887.368 119.75 887.368Z" fill="#53A1A1"/>
<path d="M283.75 504.368C270.7 507.316 267.655 516.408 264.639 524.027L267.38 525L268.757 521.611C269.453 521.861 270.178 522.053 270.7 522.053C286.65 522.053 291 497 291 497C289.55 499.947 279.4 500.316 272.15 501.789C264.9 503.263 262 509.526 262 512.474C262 515.421 264.538 518 264.538 518C269.25 504.368 283.75 504.368 283.75 504.368Z" fill="#53A1A1"/>
<path d="M75.75 63.3684C62.7 66.3158 59.655 75.4084 56.639 83.0274L59.3795 84L60.757 80.6105C61.453 80.8611 62.178 81.0526 62.7 81.0526C78.65 81.0526 83 56 83 56C81.55 58.9474 71.4 59.3158 64.15 60.7895C56.9 62.2632 54 68.5263 54 71.4737C54 74.4211 56.5375 77 56.5375 77C61.25 63.3684 75.75 63.3684 75.75 63.3684Z" fill="#53A1A1"/>
<path d="M222.75 881.368C209.7 884.316 206.655 893.408 203.639 901.027L206.38 902L207.757 898.611C208.453 898.861 209.178 899.053 209.7 899.053C225.65 899.053 230 874 230 874C228.55 876.947 218.4 877.316 211.15 878.789C203.9 880.263 201 886.526 201 889.474C201 892.421 203.538 895 203.538 895C208.25 881.368 222.75 881.368 222.75 881.368Z" fill="#53A1A1"/>
<path d="M257.75 458.368C244.7 461.316 241.655 470.408 238.639 478.027L241.38 479L242.757 475.611C243.453 475.861 244.178 476.053 244.7 476.053C260.65 476.053 265 451 265 451C263.55 453.947 253.4 454.316 246.15 455.789C238.9 457.263 236 463.526 236 466.474C236 469.421 238.538 472 238.538 472C243.25 458.368 257.75 458.368 257.75 458.368Z" fill="#53A1A1"/>
<path d="M196.75 835.368C183.7 838.316 180.655 847.408 177.639 855.027L180.38 856L181.757 852.611C182.453 852.861 183.178 853.053 183.7 853.053C199.65 853.053 204 828 204 828C202.55 830.947 192.4 831.316 185.15 832.789C177.9 834.263 175 840.526 175 843.474C175 846.421 177.538 849 177.538 849C182.25 835.368 196.75 835.368 196.75 835.368Z" fill="#53A1A1"/>
<path d="M34.2189 822.199H8.06965C7.68436 822.199 7.31485 822.352 7.04241 822.624C6.76997 822.897 6.61691 823.266 6.61691 823.652V849.801C6.61691 850.186 6.76997 850.556 7.04241 850.828C7.31485 851.101 7.68436 851.254 8.06965 851.254H34.2189C34.6042 851.254 34.9737 851.101 35.2461 850.828C35.5186 850.556 35.6716 850.186 35.6716 849.801V823.652C35.6716 823.266 35.5186 822.897 35.2461 822.624C34.9737 822.352 34.6042 822.199 34.2189 822.199ZM32.7662 830.915H26.9552V836.726H32.7662V842.537H26.9552V848.348H21.1443V842.537H15.3333V848.348H9.52239V842.537H15.3333V836.726H9.52239V830.915H15.3333V825.104H21.1443V830.915H26.9552V825.104H32.7662V830.915Z" fill="#53A1A1" fill-opacity="0.8"/>
<path d="M15.3333 830.915H21.1443V836.726H15.3333V830.915ZM21.1443 836.726H26.9552V842.537H21.1443V836.726Z" fill="#53A1A1" fill-opacity="0.8"/>
<path d="M28.75 564.368C15.7 567.316 12.655 576.408 9.639 584.027L12.3795 585L13.757 581.611C14.453 581.861 15.178 582.053 15.7 582.053C31.65 582.053 36 557 36 557C34.55 559.947 24.4 560.316 17.15 561.789C9.9 563.263 7 569.526 7 572.474C7 575.421 9.5375 578 9.5375 578C14.25 564.368 28.75 564.368 28.75 564.368Z" fill="#53A1A1"/>
</svg>
