<svg width="895" height="428" viewBox="0 0 895 428" fill="none" xmlns="http://www.w3.org/2000/svg">
<path d="M181.368 273.25C184.316 286.3 193.408 289.345 201.027 292.361L202 289.621L198.611 288.243C198.861 287.547 199.053 286.822 199.053 286.3C199.053 270.35 174 266 174 266C176.947 267.45 177.316 277.6 178.789 284.85C180.263 292.1 186.526 295 189.474 295C192.421 295 195 292.463 195 292.463C181.368 287.75 181.368 273.25 181.368 273.25Z" fill="#53A1A1"/>
<path d="M558.368 334.25C561.316 347.3 570.408 350.345 578.027 353.361L579 350.621L575.611 349.243C575.861 348.547 576.053 347.822 576.053 347.3C576.053 331.35 551 327 551 327C553.947 328.45 554.316 338.6 555.789 345.85C557.263 353.1 563.526 356 566.474 356C569.421 356 572 353.463 572 353.463C558.368 348.75 558.368 334.25 558.368 334.25Z" fill="#53A1A1"/>
<path d="M257.368 259.25C260.316 272.3 269.408 275.345 277.027 278.361L278 275.621L274.611 274.243C274.861 273.547 275.053 272.822 275.053 272.3C275.053 256.35 250 252 250 252C252.947 253.45 253.316 263.6 254.789 270.85C256.263 278.1 262.526 281 265.474 281C268.421 281 271 278.463 271 278.463C257.368 273.75 257.368 259.25 257.368 259.25Z" fill="#53A1A1"/>
<path d="M36.4281 130.25C39.3755 143.3 48.4681 146.345 56.0871 149.361L57.0597 146.621L53.6702 145.243C53.9207 144.547 54.1123 143.822 54.1123 143.3C54.1123 127.35 29.0597 123 29.0597 123C32.0071 124.45 32.3755 134.6 33.8492 141.85C35.3229 149.1 41.586 152 44.5334 152C47.4807 152 50.0597 149.463 50.0597 149.463C36.4281 144.75 36.4281 130.25 36.4281 130.25Z" fill="#53A1A1"/>
<path d="M115.368 7.25C118.316 20.3 127.408 23.345 135.027 26.361L136 23.6205L132.611 22.243C132.861 21.547 133.053 20.822 133.053 20.3C133.053 4.35 108 0 108 0C110.947 1.45 111.316 11.6 112.789 18.85C114.263 26.1 120.526 29 123.474 29C126.421 29 129 26.4625 129 26.4625C115.368 21.75 115.368 7.25 115.368 7.25Z" fill="#53A1A1"/>
<path d="M13.3684 15.25C16.3158 28.3 25.4084 31.345 33.0274 34.361L34 31.6205L30.6105 30.243C30.8611 29.547 31.0526 28.822 31.0526 28.3C31.0526 12.35 6 8 6 8C8.94737 9.45 9.31579 19.6 10.7895 26.85C12.2632 34.1 18.5263 37 21.4737 37C24.4211 37 27 34.4625 27 34.4625C13.3684 29.75 13.3684 15.25 13.3684 15.25Z" fill="#53A1A1"/>
<path d="M634.368 320.25C637.316 333.3 646.408 336.345 654.027 339.361L655 336.621L651.611 335.243C651.861 334.547 652.053 333.822 652.053 333.3C652.053 317.35 627 313 627 313C629.947 314.45 630.316 324.6 631.789 331.85C633.263 339.1 639.526 342 642.474 342C645.421 342 648 339.463 648 339.463C634.368 334.75 634.368 320.25 634.368 320.25Z" fill="#53A1A1"/>
<path d="M369.105 302.25C371.947 315.3 380.715 318.345 388.062 321.361L389 318.621L385.732 317.243C385.973 316.547 386.158 315.822 386.158 315.3C386.158 299.35 362 295 362 295C364.842 296.45 365.197 306.6 366.618 313.85C368.039 321.1 374.079 324 376.921 324C379.763 324 382.25 321.463 382.25 321.463C369.105 316.75 369.105 302.25 369.105 302.25Z" fill="#53A1A1"/>
<path d="M148.165 173.25C151.007 186.3 159.775 189.345 167.122 192.361L168.06 189.621L164.791 188.243C165.033 187.547 165.218 186.822 165.218 186.3C165.218 170.35 141.06 166 141.06 166C143.902 167.45 144.257 177.6 145.678 184.85C147.099 192.1 153.139 195 155.981 195C158.823 195 161.31 192.463 161.31 192.463C148.165 187.75 148.165 173.25 148.165 173.25Z" fill="#53A1A1"/>
<path d="M302.105 366.25C304.947 379.3 313.715 382.345 321.062 385.361L322 382.621L318.732 381.243C318.973 380.547 319.158 379.822 319.158 379.3C319.158 363.35 295 359 295 359C297.842 360.45 298.197 370.6 299.618 377.85C301.039 385.1 307.079 388 309.921 388C312.763 388 315.25 385.463 315.25 385.463C302.105 380.75 302.105 366.25 302.105 366.25Z" fill="#53A1A1"/>
<path d="M81.165 237.25C84.0071 250.3 92.775 253.345 100.122 256.361L101.06 253.621L97.7913 252.243C98.0328 251.547 98.2176 250.822 98.2176 250.3C98.2176 234.35 74.0597 230 74.0597 230C76.9018 231.45 77.2571 241.6 78.6781 248.85C80.0992 256.1 86.1386 259 88.9807 259C91.8228 259 94.3097 256.463 94.3097 256.463C81.165 251.75 81.165 237.25 81.165 237.25Z" fill="#53A1A1"/>
<path d="M746.105 363.25C748.947 376.3 757.715 379.345 765.062 382.361L766 379.62L762.732 378.243C762.973 377.547 763.158 376.822 763.158 376.3C763.158 360.35 739 356 739 356C741.842 357.45 742.197 367.6 743.618 374.85C745.039 382.1 751.079 385 753.921 385C756.763 385 759.25 382.462 759.25 382.462C746.105 377.75 746.105 363.25 746.105 363.25Z" fill="#53A1A1"/>
<path d="M383.368 240.25C386.316 253.3 395.408 256.345 403.027 259.361L404 256.621L400.611 255.243C400.861 254.547 401.053 253.822 401.053 253.3C401.053 237.35 376 233 376 233C378.947 234.45 379.316 244.6 380.789 251.85C382.263 259.1 388.526 262 391.474 262C394.421 262 397 259.463 397 259.463C383.368 254.75 383.368 240.25 383.368 240.25Z" fill="#53A1A1"/>
<path d="M162.428 111.25C165.375 124.3 174.468 127.345 182.087 130.361L183.06 127.621L179.67 126.243C179.921 125.547 180.112 124.822 180.112 124.3C180.112 108.35 155.06 104 155.06 104C158.007 105.45 158.375 115.6 159.849 122.85C161.323 130.1 167.586 133 170.533 133C173.481 133 176.06 130.463 176.06 130.463C162.428 125.75 162.428 111.25 162.428 111.25Z" fill="#53A1A1"/>
<path d="M760.368 301.25C763.316 314.3 772.408 317.345 780.027 320.361L781 317.621L777.611 316.243C777.861 315.547 778.053 314.822 778.053 314.3C778.053 298.35 753 294 753 294C755.947 295.45 756.316 305.6 757.789 312.85C759.263 320.1 765.526 323 768.474 323C771.421 323 774 320.463 774 320.463C760.368 315.75 760.368 301.25 760.368 301.25Z" fill="#53A1A1"/>
<path d="M321.368 151.25C324.316 164.3 333.408 167.345 341.027 170.361L342 167.621L338.611 166.243C338.861 165.547 339.053 164.822 339.053 164.3C339.053 148.35 314 144 314 144C316.947 145.45 317.316 155.6 318.789 162.85C320.263 170.1 326.526 173 329.474 173C332.421 173 335 170.463 335 170.463C321.368 165.75 321.368 151.25 321.368 151.25Z" fill="#53A1A1"/>
<path d="M698.368 212.25C701.316 225.3 710.408 228.345 718.027 231.361L719 228.621L715.611 227.243C715.861 226.547 716.053 225.822 716.053 225.3C716.053 209.35 691 205 691 205C693.947 206.45 694.316 216.6 695.789 223.85C697.263 231.1 703.526 234 706.474 234C709.421 234 712 231.463 712 231.463C698.368 226.75 698.368 212.25 698.368 212.25Z" fill="#53A1A1"/>
<path d="M620.368 48.25C623.316 61.3 632.408 64.345 640.027 67.361L641 64.6205L637.611 63.243C637.861 62.547 638.053 61.822 638.053 61.3C638.053 45.35 613 41 613 41C615.947 42.45 616.316 52.6 617.789 59.85C619.263 67.1 625.526 70 628.474 70C631.421 70 634 67.4625 634 67.4625C620.368 62.75 620.368 48.25 620.368 48.25Z" fill="#53A1A1"/>
<path d="M614.368 8.25C617.316 21.3 626.408 24.345 634.027 27.361L635 24.6205L631.611 23.243C631.861 22.547 632.053 21.822 632.053 21.3C632.053 5.35 607 1 607 1C609.947 2.45 610.316 12.6 611.789 19.85C613.263 27.1 619.526 30 622.474 30C625.421 30 628 27.4625 628 27.4625C614.368 22.75 614.368 8.25 614.368 8.25Z" fill="#53A1A1"/>
<path d="M200.368 93.2501C203.316 106.3 212.408 109.345 220.027 112.361L221 109.621L217.611 108.243C217.861 107.547 218.053 106.822 218.053 106.3C218.053 90.3501 193 86.0001 193 86.0001C195.947 87.4501 196.316 97.6001 197.789 104.85C199.263 112.1 205.526 115 208.474 115C211.421 115 214 112.463 214 112.463C200.368 107.75 200.368 93.2501 200.368 93.2501Z" fill="#53A1A1"/>
<path d="M577.368 154.25C580.316 167.3 589.408 170.345 597.027 173.361L598 170.621L594.611 169.243C594.861 168.547 595.053 167.822 595.053 167.3C595.053 151.35 570 147 570 147C572.947 148.45 573.316 158.6 574.789 165.85C576.263 173.1 582.526 176 585.474 176C588.421 176 591 173.463 591 173.463C577.368 168.75 577.368 154.25 577.368 154.25Z" fill="#53A1A1"/>
<path d="M136.368 362.25C139.316 375.3 148.408 378.345 156.027 381.361L157 378.621L153.611 377.243C153.861 376.547 154.053 375.822 154.053 375.3C154.053 359.35 129 355 129 355C131.947 356.45 132.316 366.6 133.789 373.85C135.263 381.1 141.526 384 144.474 384C147.421 384 150 381.463 150 381.463C136.368 376.75 136.368 362.25 136.368 362.25Z" fill="#53A1A1"/>
<path d="M228.368 151.25C231.316 164.3 240.408 167.345 248.027 170.361L249 167.621L245.611 166.243C245.861 165.547 246.053 164.822 246.053 164.3C246.053 148.35 221 144 221 144C223.947 145.45 224.316 155.6 225.789 162.85C227.263 170.1 233.526 173 236.474 173C239.421 173 242 170.463 242 170.463C228.368 165.75 228.368 151.25 228.368 151.25Z" fill="#53A1A1"/>
<path d="M605.368 212.25C608.316 225.3 617.408 228.345 625.027 231.361L626 228.621L622.611 227.243C622.861 226.547 623.053 225.822 623.053 225.3C623.053 209.35 598 205 598 205C600.947 206.45 601.316 216.6 602.789 223.85C604.263 231.1 610.526 234 613.474 234C616.421 234 619 231.463 619 231.463C605.368 226.75 605.368 212.25 605.368 212.25Z" fill="#53A1A1"/>
<path d="M398.368 49.5C401.316 63 410.408 66.15 418.027 69.27L419 66.435L415.611 65.01C415.861 64.29 416.053 63.54 416.053 63C416.053 46.5 391 42 391 42C393.947 43.5 394.316 54 395.789 61.5C397.263 69 403.526 72 406.474 72C409.421 72 412 69.375 412 69.375C398.368 64.5 398.368 49.5 398.368 49.5Z" fill="#53A1A1"/>
<path d="M258.368 15.5C261.316 29 270.408 32.15 278.027 35.27L279 32.435L275.611 31.01C275.861 30.29 276.053 29.54 276.053 29C276.053 12.5 251 7.99998 251 7.99998C253.947 9.49998 254.316 20 255.789 27.5C257.263 35 263.526 38 266.474 38C269.421 38 272 35.375 272 35.375C258.368 30.5 258.368 15.5 258.368 15.5Z" fill="#53A1A1"/>
<path d="M775.368 110.5C778.316 124 787.408 127.15 795.027 130.27L796 127.435L792.611 126.01C792.861 125.29 793.053 124.54 793.053 124C793.053 107.5 768 103 768 103C770.947 104.5 771.316 115 772.789 122.5C774.263 130 780.526 133 783.474 133C786.421 133 789 130.375 789 130.375C775.368 125.5 775.368 110.5 775.368 110.5Z" fill="#53A1A1"/>
<path d="M825.368 20.5C828.316 34 837.408 37.15 845.027 40.27L846 37.435L842.611 36.01C842.861 35.29 843.053 34.54 843.053 34C843.053 17.5 818 13 818 13C820.947 14.5 821.316 25 822.789 32.5C824.263 40 830.526 43 833.474 43C836.421 43 839 40.375 839 40.375C825.368 35.5 825.368 20.5 825.368 20.5Z" fill="#53A1A1"/>
<path d="M462.105 97.25C464.947 110.3 473.715 113.345 481.062 116.361L482 113.621L478.732 112.243C478.973 111.547 479.158 110.822 479.158 110.3C479.158 94.35 455 90 455 90C457.842 91.45 458.197 101.6 459.618 108.85C461.039 116.1 467.079 119 469.921 119C472.763 119 475.25 116.463 475.25 116.463C462.105 111.75 462.105 97.25 462.105 97.25Z" fill="#53A1A1"/>
<path d="M21.1053 305.25C23.9474 318.3 32.7153 321.345 40.0621 324.361L41 321.621L37.7316 320.243C37.9732 319.547 38.1579 318.822 38.1579 318.3C38.1579 302.35 14 298 14 298C16.8421 299.45 17.1974 309.6 18.6184 316.85C20.0395 324.1 26.0789 327 28.9211 327C31.7632 327 34.25 324.463 34.25 324.463C21.1053 319.75 21.1053 305.25 21.1053 305.25Z" fill="#53A1A1"/>
<path d="M839.105 158.25C841.947 171.3 850.715 174.345 858.062 177.361L859 174.621L855.732 173.243C855.973 172.547 856.158 171.822 856.158 171.3C856.158 155.35 832 151 832 151C834.842 152.45 835.197 162.6 836.618 169.85C838.039 177.1 844.079 180 846.921 180C849.763 180 852.25 177.463 852.25 177.463C839.105 172.75 839.105 158.25 839.105 158.25Z" fill="#53A1A1"/>
<path d="M296.483 43.9055L296.483 70.0548C296.483 70.44 296.636 70.8096 296.908 71.082C297.18 71.3544 297.55 71.5075 297.935 71.5075L324.085 71.5075C324.47 71.5075 324.839 71.3544 325.112 71.082C325.384 70.8096 325.537 70.44 325.537 70.0548L325.537 43.9055C325.537 43.5202 325.384 43.1507 325.112 42.8783C324.839 42.6058 324.47 42.4528 324.085 42.4528L297.935 42.4528C297.55 42.4528 297.18 42.6058 296.908 42.8783C296.636 43.1507 296.483 43.5202 296.483 43.9055ZM305.199 45.3582L305.199 51.1692L311.01 51.1692L311.01 45.3582L316.821 45.3582L316.821 51.1692L322.632 51.1692L322.632 56.9801L316.821 56.9801L316.821 62.7911L322.632 62.7911L322.632 68.602L316.821 68.602L316.821 62.7911L311.01 62.7911L311.01 68.602L305.199 68.602L305.199 62.7911L299.388 62.7911L299.388 56.9801L305.199 56.9801L305.199 51.1692L299.388 51.1692L299.388 45.3582L305.199 45.3582Z" fill="#53A1A1" fill-opacity="0.8"/>
<path d="M305.199 62.7911L305.199 56.9801L311.01 56.9801L311.01 62.7911L305.199 62.7911ZM311.01 56.9801L311.01 51.1692L316.821 51.1692L316.821 56.9801L311.01 56.9801Z" fill="#53A1A1" fill-opacity="0.8"/>
<path d="M167 1.45273L167 27.602C167 27.9873 167.153 28.3568 167.425 28.6292C167.698 28.9017 168.067 29.0547 168.453 29.0547L194.602 29.0547C194.987 29.0547 195.357 28.9017 195.629 28.6292C195.902 28.3568 196.055 27.9873 196.055 27.602L196.055 1.45273C196.055 1.06744 195.902 0.697928 195.629 0.425486C195.357 0.153046 194.987 -8.85276e-06 194.602 -8.83592e-06L168.453 -7.6929e-06C168.067 -7.67605e-06 167.698 0.153048 167.425 0.425487C167.153 0.697929 167 1.06744 167 1.45273ZM175.716 2.90547L175.716 8.71641L181.527 8.71641L181.527 2.90547L187.338 2.90547L187.338 8.71641L193.149 8.71641L193.149 14.5274L187.338 14.5274L187.338 20.3383L193.149 20.3383L193.149 26.1492L187.338 26.1492L187.338 20.3383L181.527 20.3383L181.527 26.1492L175.716 26.1492L175.716 20.3383L169.905 20.3383L169.905 14.5274L175.716 14.5274L175.716 8.71641L169.905 8.71641L169.905 2.90547L175.716 2.90547Z" fill="#53A1A1" fill-opacity="0.8"/>
<path d="M175.716 20.3383L175.716 14.5274L181.527 14.5274L181.527 20.3383L175.716 20.3383ZM181.527 14.5274L181.527 8.71641L187.338 8.71641L187.338 14.5274L181.527 14.5274Z" fill="#53A1A1" fill-opacity="0.8"/>
<path d="M673.483 104.905L673.483 131.055C673.483 131.44 673.636 131.81 673.908 132.082C674.18 132.354 674.55 132.507 674.935 132.507L701.085 132.507C701.47 132.507 701.839 132.354 702.112 132.082C702.384 131.81 702.537 131.44 702.537 131.055L702.537 104.905C702.537 104.52 702.384 104.151 702.112 103.878C701.839 103.606 701.47 103.453 701.085 103.453L674.935 103.453C674.55 103.453 674.18 103.606 673.908 103.878C673.636 104.151 673.483 104.52 673.483 104.905ZM682.199 106.358L682.199 112.169L688.01 112.169L688.01 106.358L693.821 106.358L693.821 112.169L699.632 112.169L699.632 117.98L693.821 117.98L693.821 123.791L699.632 123.791L699.632 129.602L693.821 129.602L693.821 123.791L688.01 123.791L688.01 129.602L682.199 129.602L682.199 123.791L676.388 123.791L676.388 117.98L682.199 117.98L682.199 112.169L676.388 112.169L676.388 106.358L682.199 106.358Z" fill="#53A1A1" fill-opacity="0.8"/>
<path d="M682.199 123.791L682.199 117.98L688.01 117.98L688.01 123.791L682.199 123.791ZM688.01 117.98L688.01 112.169L693.821 112.169L693.821 117.98L688.01 117.98Z" fill="#53A1A1" fill-opacity="0.8"/>
<path d="M270.333 190.632L270.333 216.781C270.333 217.167 270.486 217.536 270.759 217.808C271.031 218.081 271.401 218.234 271.786 218.234L297.935 218.234C298.321 218.234 298.69 218.081 298.963 217.808C299.235 217.536 299.388 217.166 299.388 216.781L299.388 190.632C299.388 190.247 299.235 189.877 298.963 189.605C298.69 189.332 298.321 189.179 297.935 189.179L271.786 189.179C271.401 189.179 271.031 189.332 270.759 189.605C270.486 189.877 270.333 190.247 270.333 190.632ZM279.05 192.085L279.05 197.896L284.861 197.896L284.861 192.085L290.672 192.085L290.672 197.896L296.483 197.896L296.483 203.707L290.672 203.707L290.672 209.518L296.483 209.518L296.483 215.328L290.672 215.328L290.672 209.518L284.861 209.518L284.861 215.328L279.05 215.328L279.05 209.518L273.239 209.518L273.239 203.707L279.05 203.707L279.05 197.896L273.239 197.896L273.239 192.085L279.05 192.085Z" fill="#53A1A1" fill-opacity="0.8"/>
<path d="M279.05 209.518L279.05 203.707L284.861 203.707L284.861 209.518L279.05 209.518ZM284.861 203.707L284.861 197.896L290.672 197.896L290.672 203.707L284.861 203.707Z" fill="#53A1A1" fill-opacity="0.8"/>
<path d="M572 43.4527L572 69.602C572 69.9873 572.153 70.3568 572.425 70.6292C572.698 70.9017 573.067 71.0547 573.453 71.0547L599.602 71.0547C599.987 71.0547 600.357 70.9017 600.629 70.6292C600.902 70.3568 601.055 69.9873 601.055 69.602L601.055 43.4527C601.055 43.0674 600.902 42.6979 600.629 42.4255C600.357 42.153 599.987 42 599.602 42L573.453 42C573.067 42 572.698 42.153 572.425 42.4255C572.153 42.6979 572 43.0674 572 43.4527ZM580.716 44.9055L580.716 50.7164L586.527 50.7164L586.527 44.9055L592.338 44.9055L592.338 50.7164L598.149 50.7164L598.149 56.5274L592.338 56.5274L592.338 62.3383L598.149 62.3383L598.149 68.1492L592.338 68.1492L592.338 62.3383L586.527 62.3383L586.527 68.1492L580.716 68.1492L580.716 62.3383L574.905 62.3383L574.905 56.5274L580.716 56.5274L580.716 50.7164L574.905 50.7164L574.905 44.9055L580.716 44.9055Z" fill="#53A1A1" fill-opacity="0.8"/>
<path d="M580.716 62.3383L580.716 56.5274L586.527 56.5274L586.527 62.3383L580.716 62.3383ZM586.527 56.5274L586.527 50.7164L592.338 50.7164L592.338 56.5274L586.527 56.5274Z" fill="#53A1A1" fill-opacity="0.8"/>
<path d="M285 91.4527L285 117.602C285 117.987 285.153 118.357 285.425 118.629C285.698 118.902 286.067 119.055 286.453 119.055L312.602 119.055C312.987 119.055 313.357 118.902 313.629 118.629C313.902 118.357 314.055 117.987 314.055 117.602L314.055 91.4527C314.055 91.0674 313.902 90.6979 313.629 90.4255C313.357 90.153 312.987 90 312.602 90L286.453 90C286.067 90 285.698 90.153 285.425 90.4255C285.153 90.6979 285 91.0674 285 91.4527ZM293.716 92.9055L293.716 98.7164L299.527 98.7164L299.527 92.9055L305.338 92.9055L305.338 98.7164L311.149 98.7164L311.149 104.527L305.338 104.527L305.338 110.338L311.149 110.338L311.149 116.149L305.338 116.149L305.338 110.338L299.527 110.338L299.527 116.149L293.716 116.149L293.716 110.338L287.905 110.338L287.905 104.527L293.716 104.527L293.716 98.7164L287.905 98.7164L287.905 92.9055L293.716 92.9055Z" fill="#53A1A1" fill-opacity="0.8"/>
<path d="M293.716 110.338L293.716 104.527L299.527 104.527L299.527 110.338L293.716 110.338ZM299.527 104.527L299.527 98.7164L305.338 98.7164L305.338 104.527L299.527 104.527Z" fill="#53A1A1" fill-opacity="0.8"/>
<path d="M527 -0.547272L527 25.602C527 25.9873 527.153 26.3568 527.425 26.6292C527.698 26.9017 528.067 27.0547 528.453 27.0547L554.602 27.0547C554.987 27.0547 555.357 26.9017 555.629 26.6292C555.902 26.3568 556.055 25.9873 556.055 25.602L556.055 -0.547273C556.055 -0.932561 555.902 -1.30207 555.629 -1.57451C555.357 -1.84695 554.987 -2.00001 554.602 -2.00001L528.453 -2.00001C528.067 -2.00001 527.698 -1.84695 527.425 -1.57451C527.153 -1.30207 527 -0.93256 527 -0.547272ZM535.716 0.905466L535.716 6.71641L541.527 6.71641L541.527 0.905465L547.338 0.905465L547.338 6.71641L553.149 6.71641L553.149 12.5274L547.338 12.5274L547.338 18.3383L553.149 18.3383L553.149 24.1492L547.338 24.1492L547.338 18.3383L541.527 18.3383L541.527 24.1492L535.716 24.1492L535.716 18.3383L529.905 18.3383L529.905 12.5274L535.716 12.5274L535.716 6.71641L529.905 6.71641L529.905 0.905466L535.716 0.905466Z" fill="#53A1A1" fill-opacity="0.8"/>
<path d="M535.716 18.3383L535.716 12.5274L541.527 12.5274L541.527 18.3383L535.716 18.3383ZM541.527 12.5274L541.527 6.71641L547.338 6.71641L547.338 12.5274L541.527 12.5274Z" fill="#53A1A1" fill-opacity="0.8"/>
<path d="M49.3931 61.632L49.3931 87.7812C49.3931 88.1665 49.5461 88.536 49.8186 88.8085C50.091 89.0809 50.4605 89.2339 50.8458 89.2339L76.9951 89.2339C77.3803 89.2339 77.7499 89.0809 78.0223 88.8084C78.2947 88.536 78.4478 88.1665 78.4478 87.7812L78.4478 61.632C78.4478 61.2467 78.2947 60.8772 78.0223 60.6047C77.7499 60.3323 77.3803 60.1792 76.9951 60.1792L50.8458 60.1792C50.4605 60.1792 50.091 60.3323 49.8186 60.6047C49.5461 60.8772 49.3931 61.2467 49.3931 61.632ZM58.1095 63.0847L58.1095 68.8956L63.9204 68.8956L63.9204 63.0847L69.7314 63.0847L69.7314 68.8956L75.5423 68.8956L75.5423 74.7066L69.7314 74.7066L69.7314 80.5175L75.5423 80.5175L75.5423 86.3285L69.7314 86.3285L69.7314 80.5175L63.9204 80.5175L63.9204 86.3285L58.1095 86.3285L58.1095 80.5175L52.2985 80.5175L52.2985 74.7066L58.1095 74.7066L58.1095 68.8956L52.2985 68.8956L52.2985 63.0847L58.1095 63.0847Z" fill="#53A1A1" fill-opacity="0.8"/>
<path d="M58.1095 80.5175L58.1095 74.7066L63.9204 74.7066L63.9204 80.5175L58.1095 80.5175ZM63.9204 74.7066L63.9204 68.8956L69.7314 68.8956L69.7314 74.7066L63.9204 74.7066Z" fill="#53A1A1" fill-opacity="0.8"/>
<path d="M647.333 251.632L647.333 277.781C647.333 278.166 647.486 278.536 647.759 278.808C648.031 279.081 648.401 279.234 648.786 279.234L674.935 279.234C675.321 279.234 675.69 279.081 675.963 278.808C676.235 278.536 676.388 278.166 676.388 277.781L676.388 251.632C676.388 251.247 676.235 250.877 675.963 250.605C675.69 250.332 675.321 250.179 674.935 250.179L648.786 250.179C648.401 250.179 648.031 250.332 647.759 250.605C647.486 250.877 647.333 251.247 647.333 251.632ZM656.05 253.085L656.05 258.896L661.861 258.896L661.861 253.085L667.672 253.085L667.672 258.896L673.483 258.896L673.483 264.707L667.672 264.707L667.672 270.517L673.483 270.517L673.483 276.328L667.672 276.328L667.672 270.517L661.861 270.517L661.861 276.328L656.05 276.328L656.05 270.517L650.239 270.517L650.239 264.707L656.05 264.707L656.05 258.896L650.239 258.896L650.239 253.085L656.05 253.085Z" fill="#53A1A1" fill-opacity="0.8"/>
<path d="M656.05 270.517L656.05 264.707L661.861 264.707L661.861 270.517L656.05 270.517ZM661.861 264.707L661.861 258.896L667.672 258.896L667.672 264.707L661.861 264.707Z" fill="#53A1A1" fill-opacity="0.8"/>
<path d="M174.453 193.537L174.453 219.687C174.453 220.072 174.606 220.442 174.878 220.714C175.151 220.986 175.52 221.139 175.905 221.139L202.055 221.139C202.44 221.139 202.81 220.986 203.082 220.714C203.354 220.442 203.507 220.072 203.507 219.687L203.507 193.537C203.507 193.152 203.354 192.783 203.082 192.51C202.81 192.238 202.44 192.085 202.055 192.085L175.905 192.085C175.52 192.085 175.151 192.238 174.878 192.51C174.606 192.783 174.453 193.152 174.453 193.537ZM183.169 194.99L183.169 200.801L188.98 200.801L188.98 194.99L194.791 194.99L194.791 200.801L200.602 200.801L200.602 206.612L194.791 206.612L194.791 212.423L200.602 212.423L200.602 218.234L194.791 218.234L194.791 212.423L188.98 212.423L188.98 218.234L183.169 218.234L183.169 212.423L177.358 212.423L177.358 206.612L183.169 206.612L183.169 200.801L177.358 200.801L177.358 194.99L183.169 194.99Z" fill="#53A1A1" fill-opacity="0.8"/>
<path d="M183.169 212.423L183.169 206.612L188.98 206.612L188.98 212.423L183.169 212.423ZM188.98 206.612L188.98 200.801L194.791 200.801L194.791 206.612L188.98 206.612Z" fill="#53A1A1" fill-opacity="0.8"/>
<path d="M551.453 254.537L551.453 280.687C551.453 281.072 551.606 281.441 551.878 281.714C552.151 281.986 552.52 282.139 552.905 282.139L579.055 282.139C579.44 282.139 579.81 281.986 580.082 281.714C580.354 281.441 580.507 281.072 580.507 280.687L580.507 254.537C580.507 254.152 580.354 253.783 580.082 253.51C579.81 253.238 579.44 253.085 579.055 253.085L552.905 253.085C552.52 253.085 552.151 253.238 551.878 253.51C551.606 253.783 551.453 254.152 551.453 254.537ZM560.169 255.99L560.169 261.801L565.98 261.801L565.98 255.99L571.791 255.99L571.791 261.801L577.602 261.801L577.602 267.612L571.791 267.612L571.791 273.423L577.602 273.423L577.602 279.234L571.791 279.234L571.791 273.423L565.98 273.423L565.98 279.234L560.169 279.234L560.169 273.423L554.358 273.423L554.358 267.612L560.169 267.612L560.169 261.801L554.358 261.801L554.358 255.99L560.169 255.99Z" fill="#53A1A1" fill-opacity="0.8"/>
<path d="M560.169 273.423L560.169 267.612L565.98 267.612L565.98 273.423L560.169 273.423ZM565.98 267.612L565.98 261.801L571.791 261.801L571.791 267.612L565.98 267.612Z" fill="#53A1A1" fill-opacity="0.8"/>
<path d="M220.94 305.398L220.94 331.547C220.94 331.933 221.093 332.302 221.366 332.575C221.638 332.847 222.008 333 222.393 333L248.542 333C248.928 333 249.297 332.847 249.57 332.575C249.842 332.302 249.995 331.933 249.995 331.547L249.995 305.398C249.995 305.013 249.842 304.643 249.57 304.371C249.297 304.098 248.928 303.945 248.542 303.945L222.393 303.945C222.008 303.945 221.638 304.098 221.366 304.371C221.093 304.643 220.94 305.013 220.94 305.398ZM229.657 306.851L229.657 312.662L235.468 312.662L235.468 306.851L241.279 306.851L241.279 312.662L247.09 312.662L247.09 318.473L241.279 318.473L241.279 324.284L247.09 324.284L247.09 330.095L241.279 330.095L241.279 324.284L235.468 324.284L235.468 330.095L229.657 330.095L229.657 324.284L223.846 324.284L223.846 318.473L229.657 318.473L229.657 312.662L223.846 312.662L223.846 306.851L229.657 306.851Z" fill="#53A1A1" fill-opacity="0.8"/>
<path d="M229.657 324.284L229.657 318.473L235.468 318.473L235.468 324.284L229.657 324.284ZM235.468 318.473L235.468 312.662L241.279 312.662L241.279 318.473L235.468 318.473Z" fill="#53A1A1" fill-opacity="0.8"/>
<path d="M-1.20652e-06 176.398L-6.35011e-08 202.547C-4.66596e-08 202.933 0.153056 203.302 0.425497 203.575C0.697937 203.847 1.06745 204 1.45274 204L27.602 204C27.9873 204 28.3568 203.847 28.6292 203.575C28.9017 203.302 29.0547 202.933 29.0547 202.547L29.0547 176.398C29.0547 176.013 28.9017 175.643 28.6292 175.371C28.3568 175.098 27.9873 174.945 27.602 174.945L1.45273 174.945C1.06745 174.945 0.697936 175.098 0.425495 175.371C0.153054 175.643 -1.22336e-06 176.013 -1.20652e-06 176.398ZM8.71642 177.851L8.71642 183.662L14.5274 183.662L14.5274 177.851L20.3383 177.851L20.3383 183.662L26.1493 183.662L26.1493 189.473L20.3383 189.473L20.3383 195.284L26.1493 195.284L26.1493 201.095L20.3383 201.095L20.3383 195.284L14.5274 195.284L14.5274 201.095L8.71642 201.095L8.71642 195.284L2.90547 195.284L2.90547 189.473L8.71642 189.473L8.71642 183.662L2.90547 183.662L2.90547 177.851L8.71642 177.851Z" fill="#53A1A1" fill-opacity="0.8"/>
<path d="M8.71643 195.284L8.71643 189.473L14.5274 189.473L14.5274 195.284L8.71643 195.284ZM14.5274 189.473L14.5274 183.662L20.3383 183.662L20.3383 189.473L14.5274 189.473Z" fill="#53A1A1" fill-opacity="0.8"/>
<path d="M175 366.398L175 392.547C175 392.933 175.153 393.302 175.425 393.575C175.698 393.847 176.067 394 176.453 394L202.602 394C202.987 394 203.357 393.847 203.629 393.575C203.902 393.302 204.055 392.933 204.055 392.547L204.055 366.398C204.055 366.013 203.902 365.643 203.629 365.371C203.357 365.098 202.987 364.945 202.602 364.945L176.453 364.945C176.067 364.945 175.698 365.098 175.425 365.371C175.153 365.643 175 366.013 175 366.398ZM183.716 367.851L183.716 373.662L189.527 373.662L189.527 367.851L195.338 367.851L195.338 373.662L201.149 373.662L201.149 379.473L195.338 379.473L195.338 385.284L201.149 385.284L201.149 391.095L195.338 391.095L195.338 385.284L189.527 385.284L189.527 391.095L183.716 391.095L183.716 385.284L177.905 385.284L177.905 379.473L183.716 379.473L183.716 373.662L177.905 373.662L177.905 367.851L183.716 367.851Z" fill="#53A1A1" fill-opacity="0.8"/>
<path d="M183.716 385.284L183.716 379.473L189.527 379.473L189.527 385.284L183.716 385.284ZM189.527 379.473L189.527 373.662L195.338 373.662L195.338 379.473L189.527 379.473Z" fill="#53A1A1" fill-opacity="0.8"/>
<path d="M597.94 366.398L597.94 392.547C597.94 392.933 598.093 393.302 598.366 393.575C598.638 393.847 599.008 394 599.393 394L625.542 394C625.928 394 626.297 393.847 626.57 393.575C626.842 393.302 626.995 392.933 626.995 392.547L626.995 366.398C626.995 366.013 626.842 365.643 626.57 365.371C626.297 365.098 625.928 364.945 625.542 364.945L599.393 364.945C599.008 364.945 598.638 365.098 598.366 365.371C598.093 365.643 597.94 366.013 597.94 366.398ZM606.657 367.851L606.657 373.662L612.468 373.662L612.468 367.851L618.279 367.851L618.279 373.662L624.09 373.662L624.09 379.473L618.279 379.473L618.279 385.284L624.09 385.284L624.09 391.095L618.279 391.095L618.279 385.284L612.468 385.284L612.468 391.095L606.657 391.095L606.657 385.284L600.846 385.284L600.846 379.473L606.657 379.473L606.657 373.662L600.846 373.662L600.846 367.851L606.657 367.851Z" fill="#53A1A1" fill-opacity="0.8"/>
<path d="M606.657 385.284L606.657 379.473L612.468 379.473L612.468 385.284L606.657 385.284ZM612.468 379.473L612.468 373.662L618.279 373.662L618.279 379.473L612.468 379.473Z" fill="#53A1A1" fill-opacity="0.8"/>
<path d="M370 359.398L370 385.547C370 385.933 370.153 386.302 370.425 386.575C370.698 386.847 371.067 387 371.453 387L397.602 387C397.987 387 398.357 386.847 398.629 386.575C398.902 386.302 399.055 385.933 399.055 385.547L399.055 359.398C399.055 359.013 398.902 358.643 398.629 358.371C398.357 358.098 397.987 357.945 397.602 357.945L371.453 357.945C371.067 357.945 370.698 358.098 370.425 358.371C370.153 358.643 370 359.013 370 359.398ZM378.716 360.851L378.716 366.662L384.527 366.662L384.527 360.851L390.338 360.851L390.338 366.662L396.149 366.662L396.149 372.473L390.338 372.473L390.338 378.284L396.149 378.284L396.149 384.095L390.338 384.095L390.338 378.284L384.527 378.284L384.527 384.095L378.716 384.095L378.716 378.284L372.905 378.284L372.905 372.473L378.716 372.473L378.716 366.662L372.905 366.662L372.905 360.851L378.716 360.851Z" fill="#53A1A1" fill-opacity="0.8"/>
<path d="M378.716 378.284L378.716 372.473L384.527 372.473L384.527 378.284L378.716 378.284ZM384.527 372.473L384.527 366.662L390.338 366.662L390.338 372.473L384.527 372.473Z" fill="#53A1A1" fill-opacity="0.8"/>
<path d="M322.632 248.741L322.632 274.891C322.632 275.276 322.785 275.645 323.057 275.918C323.33 276.19 323.699 276.343 324.085 276.343L350.234 276.343C350.619 276.343 350.989 276.19 351.261 275.918C351.534 275.645 351.687 275.276 351.687 274.891L351.687 248.741C351.687 248.356 351.534 247.987 351.261 247.714C350.989 247.442 350.619 247.289 350.234 247.289L324.085 247.289C323.699 247.289 323.33 247.442 323.057 247.714C322.785 247.987 322.632 248.356 322.632 248.741ZM331.348 250.194L331.348 256.005L337.159 256.005L337.159 250.194L342.97 250.194L342.97 256.005L348.781 256.005L348.781 261.816L342.97 261.816L342.97 267.627L348.781 267.627L348.781 273.438L342.97 273.438L342.97 267.627L337.159 267.627L337.159 273.438L331.348 273.438L331.348 267.627L325.537 267.627L325.537 261.816L331.348 261.816L331.348 256.005L325.537 256.005L325.537 250.194L331.348 250.194Z" fill="#53A1A1" fill-opacity="0.8"/>
<path d="M331.348 267.627L331.348 261.816L337.159 261.816L337.159 267.627L331.348 267.627ZM337.159 261.816L337.159 256.005L342.97 256.005L342.97 261.816L337.159 261.816Z" fill="#53A1A1" fill-opacity="0.8"/>
<path d="M101.692 119.741L101.692 145.891C101.692 146.276 101.845 146.645 102.117 146.918C102.389 147.19 102.759 147.343 103.144 147.343L129.294 147.343C129.679 147.343 130.048 147.19 130.321 146.918C130.593 146.645 130.746 146.276 130.746 145.891L130.746 119.741C130.746 119.356 130.593 118.987 130.321 118.714C130.048 118.442 129.679 118.289 129.294 118.289L103.144 118.289C102.759 118.289 102.389 118.442 102.117 118.714C101.845 118.987 101.692 119.356 101.692 119.741ZM110.408 121.194L110.408 127.005L116.219 127.005L116.219 121.194L122.03 121.194L122.03 127.005L127.841 127.005L127.841 132.816L122.03 132.816L122.03 138.627L127.841 138.627L127.841 144.438L122.03 144.438L122.03 138.627L116.219 138.627L116.219 144.438L110.408 144.438L110.408 138.627L104.597 138.627L104.597 132.816L110.408 132.816L110.408 127.005L104.597 127.005L104.597 121.194L110.408 121.194Z" fill="#53A1A1" fill-opacity="0.8"/>
<path d="M110.408 138.627L110.408 132.816L116.219 132.816L116.219 138.627L110.408 138.627ZM116.219 132.816L116.219 127.005L122.03 127.005L122.03 132.816L116.219 132.816Z" fill="#53A1A1" fill-opacity="0.8"/>
<path d="M699.632 309.741L699.632 335.891C699.632 336.276 699.785 336.645 700.057 336.918C700.33 337.19 700.699 337.343 701.085 337.343L727.234 337.343C727.619 337.343 727.989 337.19 728.261 336.918C728.534 336.645 728.687 336.276 728.687 335.891L728.687 309.741C728.687 309.356 728.534 308.987 728.261 308.714C727.989 308.442 727.619 308.289 727.234 308.289L701.085 308.289C700.699 308.289 700.33 308.442 700.057 308.714C699.785 308.987 699.632 309.356 699.632 309.741ZM708.348 311.194L708.348 317.005L714.159 317.005L714.159 311.194L719.97 311.194L719.97 317.005L725.781 317.005L725.781 322.816L719.97 322.816L719.97 328.627L725.781 328.627L725.781 334.438L719.97 334.438L719.97 328.627L714.159 328.627L714.159 334.438L708.348 334.438L708.348 328.627L702.537 328.627L702.537 322.816L708.348 322.816L708.348 317.005L702.537 317.005L702.537 311.194L708.348 311.194Z" fill="#53A1A1" fill-opacity="0.8"/>
<path d="M708.348 328.627L708.348 322.816L714.159 322.816L714.159 328.627L708.348 328.627ZM714.159 322.816L714.159 317.005L719.97 317.005L719.97 322.816L714.159 322.816Z" fill="#53A1A1" fill-opacity="0.8"/>
<path d="M414.154 290.871L414.154 317.02C414.154 317.405 414.307 317.775 414.58 318.047C414.852 318.32 415.222 318.473 415.607 318.473L441.756 318.473C442.141 318.473 442.511 318.32 442.783 318.047C443.056 317.775 443.209 317.405 443.209 317.02L443.209 290.871C443.209 290.485 443.056 290.116 442.783 289.843C442.511 289.571 442.141 289.418 441.756 289.418L415.607 289.418C415.222 289.418 414.852 289.571 414.58 289.843C414.307 290.116 414.154 290.485 414.154 290.871ZM422.871 292.323L422.871 298.134L428.682 298.134L428.682 292.323L434.492 292.323L434.492 298.134L440.303 298.134L440.303 303.945L434.492 303.945L434.492 309.756L440.303 309.756L440.303 315.567L434.492 315.567L434.492 309.756L428.682 309.756L428.682 315.567L422.871 315.567L422.871 309.756L417.06 309.756L417.06 303.945L422.871 303.945L422.871 298.134L417.06 298.134L417.06 292.323L422.871 292.323Z" fill="#53A1A1" fill-opacity="0.8"/>
<path d="M422.871 309.756L422.871 303.945L428.682 303.945L428.682 309.756L422.871 309.756ZM428.682 303.945L428.682 298.134L434.492 298.134L434.492 303.945L428.682 303.945Z" fill="#53A1A1" fill-opacity="0.8"/>
<path d="M791.154 351.871L791.154 378.02C791.154 378.405 791.307 378.775 791.58 379.047C791.852 379.32 792.222 379.473 792.607 379.473L818.756 379.473C819.142 379.473 819.511 379.32 819.783 379.047C820.056 378.775 820.209 378.405 820.209 378.02L820.209 351.871C820.209 351.485 820.056 351.116 819.783 350.843C819.511 350.571 819.142 350.418 818.756 350.418L792.607 350.418C792.222 350.418 791.852 350.571 791.58 350.843C791.307 351.116 791.154 351.485 791.154 351.871ZM799.871 353.323L799.871 359.134L805.682 359.134L805.682 353.323L811.493 353.323L811.493 359.134L817.303 359.134L817.303 364.945L811.493 364.945L811.493 370.756L817.303 370.756L817.303 376.567L811.493 376.567L811.493 370.756L805.682 370.756L805.682 376.567L799.871 376.567L799.871 370.756L794.06 370.756L794.06 364.945L799.871 364.945L799.871 359.134L794.06 359.134L794.06 353.323L799.871 353.323Z" fill="#53A1A1" fill-opacity="0.8"/>
<path d="M799.871 370.756L799.871 364.945L805.682 364.945L805.682 370.756L799.871 370.756ZM805.682 364.945L805.682 359.134L811.493 359.134L811.493 364.945L805.682 364.945Z" fill="#53A1A1" fill-opacity="0.8"/>
<path d="M454.831 216.781L454.831 242.93C454.831 243.316 454.984 243.685 455.256 243.958C455.529 244.23 455.898 244.383 456.284 244.383L482.433 244.383C482.818 244.383 483.188 244.23 483.46 243.958C483.732 243.685 483.886 243.316 483.886 242.93L483.886 216.781C483.886 216.396 483.732 216.026 483.46 215.754C483.188 215.481 482.818 215.328 482.433 215.328L456.284 215.328C455.898 215.328 455.529 215.481 455.256 215.754C454.984 216.026 454.831 216.396 454.831 216.781ZM463.547 218.234L463.547 224.045L469.358 224.045L469.358 218.234L475.169 218.234L475.169 224.045L480.98 224.045L480.98 229.856L475.169 229.856L475.169 235.667L480.98 235.667L480.98 241.478L475.169 241.478L475.169 235.667L469.358 235.667L469.358 241.478L463.547 241.478L463.547 235.667L457.736 235.667L457.736 229.856L463.547 229.856L463.547 224.045L457.736 224.045L457.736 218.234L463.547 218.234Z" fill="#53A1A1" fill-opacity="0.8"/>
<path d="M463.547 235.667L463.547 229.856L469.358 229.856L469.358 235.667L463.547 235.667ZM469.358 229.856L469.358 224.045L475.169 224.045L475.169 229.856L469.358 229.856Z" fill="#53A1A1" fill-opacity="0.8"/>
<path d="M831.831 277.781L831.831 303.93C831.831 304.316 831.984 304.685 832.256 304.958C832.529 305.23 832.898 305.383 833.284 305.383L859.433 305.383C859.818 305.383 860.188 305.23 860.46 304.958C860.732 304.685 860.886 304.316 860.886 303.93L860.886 277.781C860.886 277.396 860.732 277.026 860.46 276.754C860.188 276.481 859.818 276.328 859.433 276.328L833.284 276.328C832.898 276.328 832.529 276.481 832.256 276.754C831.984 277.026 831.831 277.396 831.831 277.781ZM840.547 279.234L840.547 285.045L846.358 285.045L846.358 279.234L852.169 279.234L852.169 285.045L857.98 285.045L857.98 290.856L852.169 290.856L852.169 296.667L857.98 296.667L857.98 302.478L852.169 302.478L852.169 296.667L846.358 296.667L846.358 302.478L840.547 302.478L840.547 296.667L834.736 296.667L834.736 290.856L840.547 290.856L840.547 285.045L834.736 285.045L834.736 279.234L840.547 279.234Z" fill="#53A1A1" fill-opacity="0.8"/>
<path d="M840.547 296.667L840.547 290.856L846.358 290.856L846.358 296.667L840.547 296.667ZM846.358 290.856L846.358 285.045L852.169 285.045L852.169 290.856L846.358 290.856Z" fill="#53A1A1" fill-opacity="0.8"/>
<path d="M385.099 106.373L385.099 132.522C385.099 132.908 385.253 133.277 385.525 133.55C385.797 133.822 386.167 133.975 386.552 133.975L412.701 133.975C413.087 133.975 413.456 133.822 413.729 133.55C414.001 133.277 414.154 132.908 414.154 132.522L414.154 106.373C414.154 105.988 414.001 105.618 413.729 105.346C413.456 105.073 413.087 104.92 412.701 104.92L386.552 104.92C386.167 104.92 385.797 105.073 385.525 105.346C385.253 105.618 385.099 105.988 385.099 106.373ZM393.816 107.826L393.816 113.637L399.627 113.637L399.627 107.826L405.438 107.826L405.438 113.637L411.249 113.637L411.249 119.448L405.438 119.448L405.438 125.259L411.249 125.259L411.249 131.07L405.438 131.07L405.438 125.259L399.627 125.259L399.627 131.07L393.816 131.07L393.816 125.259L388.005 125.259L388.005 119.448L393.816 119.448L393.816 113.637L388.005 113.637L388.005 107.826L393.816 107.826Z" fill="#53A1A1" fill-opacity="0.8"/>
<path d="M393.816 125.259L393.816 119.448L399.627 119.448L399.627 125.259L393.816 125.259ZM399.627 119.448L399.627 113.637L405.438 113.637L405.438 119.448L399.627 119.448Z" fill="#53A1A1" fill-opacity="0.8"/>
<path d="M762.099 167.373L762.099 193.522C762.099 193.908 762.253 194.277 762.525 194.55C762.797 194.822 763.167 194.975 763.552 194.975L789.701 194.975C790.087 194.975 790.456 194.822 790.729 194.55C791.001 194.277 791.154 193.908 791.154 193.522L791.154 167.373C791.154 166.988 791.001 166.618 790.729 166.346C790.456 166.073 790.087 165.92 789.701 165.92L763.552 165.92C763.167 165.92 762.797 166.073 762.525 166.346C762.253 166.618 762.099 166.988 762.099 167.373ZM770.816 168.826L770.816 174.637L776.627 174.637L776.627 168.826L782.438 168.826L782.438 174.637L788.249 174.637L788.249 180.448L782.438 180.448L782.438 186.259L788.249 186.259L788.249 192.07L782.438 192.07L782.438 186.259L776.627 186.259L776.627 192.07L770.816 192.07L770.816 186.259L765.005 186.259L765.005 180.448L770.816 180.448L770.816 174.637L765.005 174.637L765.005 168.826L770.816 168.826Z" fill="#53A1A1" fill-opacity="0.8"/>
<path d="M770.816 186.259L770.816 180.448L776.627 180.448L776.627 186.259L770.816 186.259ZM776.627 180.448L776.627 174.637L782.438 174.637L782.438 180.448L776.627 180.448Z" fill="#53A1A1" fill-opacity="0.8"/>
<path d="M706 29.398L706 55.5473C706 55.9326 706.153 56.3021 706.425 56.5745C706.698 56.847 707.067 57 707.453 57L733.602 57C733.987 57 734.357 56.847 734.629 56.5745C734.902 56.3021 735.055 55.9326 735.055 55.5473L735.055 29.398C735.055 29.0128 734.902 28.6432 734.629 28.3708C734.357 28.0984 733.987 27.9453 733.602 27.9453L707.453 27.9453C707.067 27.9453 706.698 28.0984 706.425 28.3708C706.153 28.6432 706 29.0128 706 29.398ZM714.716 30.8508L714.716 36.6617L720.527 36.6617L720.527 30.8508L726.338 30.8508L726.338 36.6617L732.149 36.6617L732.149 42.4727L726.338 42.4727L726.338 48.2836L732.149 48.2836L732.149 54.0946L726.338 54.0946L726.338 48.2836L720.527 48.2836L720.527 54.0946L714.716 54.0946L714.716 48.2836L708.905 48.2836L708.905 42.4727L714.716 42.4727L714.716 36.6617L708.905 36.6617L708.905 30.8508L714.716 30.8508Z" fill="#53A1A1" fill-opacity="0.8"/>
<path d="M714.716 48.2836L714.716 42.4727L720.527 42.4727L720.527 48.2836L714.716 48.2836ZM720.527 42.4727L720.527 36.6617L726.338 36.6617L726.338 42.4727L720.527 42.4727Z" fill="#53A1A1" fill-opacity="0.8"/>
<path d="M488.244 42.4527L488.244 68.602C488.244 68.9873 488.397 69.3568 488.669 69.6292C488.942 69.9017 489.311 70.0547 489.697 70.0547L515.846 70.0547C516.231 70.0547 516.601 69.9017 516.873 69.6292C517.145 69.3568 517.299 68.9873 517.298 68.602L517.298 42.4527C517.298 42.0675 517.145 41.6979 516.873 41.4255C516.601 41.1531 516.231 41 515.846 41L489.697 41C489.311 41 488.942 41.1531 488.669 41.4255C488.397 41.6979 488.244 42.0675 488.244 42.4527ZM496.96 43.9055L496.96 49.7164L502.771 49.7164L502.771 43.9055L508.582 43.9055L508.582 49.7164L514.393 49.7164L514.393 55.5274L508.582 55.5274L508.582 61.3383L514.393 61.3383L514.393 67.1493L508.582 67.1493L508.582 61.3383L502.771 61.3383L502.771 67.1493L496.96 67.1493L496.96 61.3383L491.149 61.3383L491.149 55.5274L496.96 55.5274L496.96 49.7164L491.149 49.7164L491.149 43.9055L496.96 43.9055Z" fill="#53A1A1" fill-opacity="0.8"/>
<path d="M496.96 61.3383L496.96 55.5274L502.771 55.5274L502.771 61.3383L496.96 61.3383ZM502.771 55.5274L502.771 49.7164L508.582 49.7164L508.582 55.5274L502.771 55.5274Z" fill="#53A1A1" fill-opacity="0.8"/>
<path d="M379 9.45274L379 35.602C379 35.9873 379.153 36.3568 379.425 36.6292C379.698 36.9017 380.067 37.0547 380.453 37.0547L406.602 37.0547C406.987 37.0547 407.357 36.9017 407.629 36.6292C407.902 36.3568 408.055 35.9873 408.055 35.602L408.055 9.45274C408.055 9.06745 407.902 8.69794 407.629 8.4255C407.357 8.15306 406.987 8.00001 406.602 8.00001L380.453 8.00001C380.067 8.00001 379.698 8.15306 379.425 8.4255C379.153 8.69794 379 9.06746 379 9.45274ZM387.716 10.9055L387.716 16.7164L393.527 16.7164L393.527 10.9055L399.338 10.9055L399.338 16.7164L405.149 16.7164L405.149 22.5274L399.338 22.5274L399.338 28.3383L405.149 28.3383L405.149 34.1493L399.338 34.1493L399.338 28.3383L393.527 28.3383L393.527 34.1493L387.716 34.1493L387.716 28.3383L381.905 28.3383L381.905 22.5274L387.716 22.5274L387.716 16.7164L381.905 16.7164L381.905 10.9055L387.716 10.9055Z" fill="#53A1A1" fill-opacity="0.8"/>
<path d="M387.716 28.3383L387.716 22.5274L393.527 22.5274L393.527 28.3383L387.716 28.3383ZM393.527 22.5274L393.527 16.7164L399.338 16.7164L399.338 22.5274L393.527 22.5274Z" fill="#53A1A1" fill-opacity="0.8"/>
<path d="M47.2438 250.453L47.2438 276.602C47.2438 276.987 47.3968 277.357 47.6693 277.629C47.9417 277.902 48.3112 278.055 48.6965 278.055L74.8458 278.055C75.2311 278.055 75.6006 277.902 75.873 277.629C76.1454 277.357 76.2985 276.987 76.2985 276.602L76.2985 250.453C76.2985 250.067 76.1454 249.698 75.873 249.426C75.6006 249.153 75.2311 249 74.8458 249L48.6965 249C48.3112 249 47.9417 249.153 47.6693 249.426C47.3968 249.698 47.2438 250.067 47.2438 250.453ZM55.9602 251.905L55.9602 257.716L61.7711 257.716L61.7711 251.905L67.5821 251.905L67.5821 257.716L73.393 257.716L73.393 263.527L67.5821 263.527L67.5821 269.338L73.393 269.338L73.393 275.149L67.5821 275.149L67.5821 269.338L61.7711 269.338L61.7711 275.149L55.9602 275.149L55.9602 269.338L50.1492 269.338L50.1492 263.527L55.9602 263.527L55.9602 257.716L50.1492 257.716L50.1492 251.905L55.9602 251.905Z" fill="#53A1A1" fill-opacity="0.8"/>
<path d="M55.9602 269.338L55.9602 263.527L61.7712 263.527L61.7712 269.338L55.9602 269.338ZM61.7712 263.527L61.7712 257.716L67.5821 257.716L67.5821 263.527L61.7712 263.527Z" fill="#53A1A1" fill-opacity="0.8"/>
<path d="M865.244 103.453L865.244 129.602C865.244 129.987 865.397 130.357 865.669 130.629C865.942 130.902 866.311 131.055 866.697 131.055L892.846 131.055C893.231 131.055 893.601 130.902 893.873 130.629C894.145 130.357 894.299 129.987 894.298 129.602L894.298 103.453C894.298 103.067 894.145 102.698 893.873 102.425C893.601 102.153 893.231 102 892.846 102L866.697 102C866.311 102 865.942 102.153 865.669 102.425C865.397 102.698 865.244 103.067 865.244 103.453ZM873.96 104.905L873.96 110.716L879.771 110.716L879.771 104.905L885.582 104.905L885.582 110.716L891.393 110.716L891.393 116.527L885.582 116.527L885.582 122.338L891.393 122.338L891.393 128.149L885.582 128.149L885.582 122.338L879.771 122.338L879.771 128.149L873.96 128.149L873.96 122.338L868.149 122.338L868.149 116.527L873.96 116.527L873.96 110.716L868.149 110.716L868.149 104.905L873.96 104.905Z" fill="#53A1A1" fill-opacity="0.8"/>
<path d="M873.96 122.338L873.96 116.527L879.771 116.527L879.771 122.338L873.96 122.338ZM879.771 116.527L879.771 110.716L885.582 110.716L885.582 116.527L879.771 116.527Z" fill="#53A1A1" fill-opacity="0.8"/>
<path d="M173 43.9055L173 70.0548C173 70.4401 173.153 70.8096 173.425 71.082C173.698 71.3545 174.067 71.5075 174.453 71.5075L200.602 71.5075C200.987 71.5075 201.357 71.3545 201.629 71.082C201.902 70.8096 202.055 70.4401 202.055 70.0548L202.055 43.9055C202.055 43.5202 201.902 43.1507 201.629 42.8783C201.357 42.6058 200.987 42.4528 200.602 42.4528L174.453 42.4528C174.067 42.4528 173.698 42.6058 173.425 42.8783C173.153 43.1507 173 43.5202 173 43.9055ZM181.716 45.3583L181.716 51.1692L187.527 51.1692L187.527 45.3583L193.338 45.3583L193.338 51.1692L199.149 51.1692L199.149 56.9801L193.338 56.9801L193.338 62.7911L199.149 62.7911L199.149 68.602L193.338 68.602L193.338 62.7911L187.527 62.7911L187.527 68.602L181.716 68.602L181.716 62.7911L175.905 62.7911L175.905 56.9801L181.716 56.9801L181.716 51.1692L175.905 51.1692L175.905 45.3583L181.716 45.3583Z" fill="#53A1A1" fill-opacity="0.8"/>
<path d="M181.716 62.7911L181.716 56.9801L187.527 56.9801L187.527 62.7911L181.716 62.7911ZM187.527 56.9801L187.527 51.1692L193.338 51.1692L193.338 56.9801L187.527 56.9801Z" fill="#53A1A1" fill-opacity="0.8"/>
<path d="M550 104.905L550 131.055C550 131.44 550.153 131.81 550.425 132.082C550.698 132.354 551.067 132.507 551.453 132.507L577.602 132.507C577.987 132.507 578.357 132.354 578.629 132.082C578.902 131.81 579.055 131.44 579.055 131.055L579.055 104.905C579.055 104.52 578.902 104.151 578.629 103.878C578.357 103.606 577.987 103.453 577.602 103.453L551.453 103.453C551.067 103.453 550.698 103.606 550.425 103.878C550.153 104.151 550 104.52 550 104.905ZM558.716 106.358L558.716 112.169L564.527 112.169L564.527 106.358L570.338 106.358L570.338 112.169L576.149 112.169L576.149 117.98L570.338 117.98L570.338 123.791L576.149 123.791L576.149 129.602L570.338 129.602L570.338 123.791L564.527 123.791L564.527 129.602L558.716 129.602L558.716 123.791L552.905 123.791L552.905 117.98L558.716 117.98L558.716 112.169L552.905 112.169L552.905 106.358L558.716 106.358Z" fill="#53A1A1" fill-opacity="0.8"/>
<path d="M558.716 123.791L558.716 117.98L564.527 117.98L564.527 123.791L558.716 123.791ZM564.527 117.98L564.527 112.169L570.338 112.169L570.338 117.98L564.527 117.98Z" fill="#53A1A1" fill-opacity="0.8"/>
<path d="M480 339.398L480 365.547C480 365.933 480.153 366.302 480.425 366.575C480.698 366.847 481.067 367 481.453 367L507.602 367C507.987 367 508.357 366.847 508.629 366.575C508.902 366.302 509.055 365.933 509.055 365.547L509.055 339.398C509.055 339.013 508.902 338.643 508.629 338.371C508.357 338.098 507.987 337.945 507.602 337.945L481.453 337.945C481.067 337.945 480.698 338.098 480.425 338.371C480.153 338.643 480 339.013 480 339.398ZM488.716 340.851L488.716 346.662L494.527 346.662L494.527 340.851L500.338 340.851L500.338 346.662L506.149 346.662L506.149 352.473L500.338 352.473L500.338 358.284L506.149 358.284L506.149 364.095L500.338 364.095L500.338 358.284L494.527 358.284L494.527 364.095L488.716 364.095L488.716 358.284L482.905 358.284L482.905 352.473L488.716 352.473L488.716 346.662L482.905 346.662L482.905 340.851L488.716 340.851Z" fill="#53A1A1" fill-opacity="0.8"/>
<path d="M488.716 358.284L488.716 352.473L494.527 352.473L494.527 358.284L488.716 358.284ZM494.527 352.473L494.527 346.662L500.338 346.662L500.338 352.473L494.527 352.473Z" fill="#53A1A1" fill-opacity="0.8"/>
<path d="M109 312.906L109 339.055C109 339.44 109.153 339.81 109.425 340.082C109.698 340.355 110.067 340.508 110.453 340.508L136.602 340.508C136.987 340.508 137.357 340.355 137.629 340.082C137.902 339.81 138.055 339.44 138.055 339.055L138.055 312.906C138.055 312.52 137.902 312.151 137.629 311.878C137.357 311.606 136.987 311.453 136.602 311.453L110.453 311.453C110.067 311.453 109.698 311.606 109.425 311.878C109.153 312.151 109 312.52 109 312.906ZM117.716 314.358L117.716 320.169L123.527 320.169L123.527 314.358L129.338 314.358L129.338 320.169L135.149 320.169L135.149 325.98L129.338 325.98L129.338 331.791L135.149 331.791L135.149 337.602L129.338 337.602L129.338 331.791L123.527 331.791L123.527 337.602L117.716 337.602L117.716 331.791L111.905 331.791L111.905 325.98L117.716 325.98L117.716 320.169L111.905 320.169L111.905 314.358L117.716 314.358Z" fill="#53A1A1" fill-opacity="0.8"/>
<path d="M117.716 331.791L117.716 325.98L123.527 325.98L123.527 331.791L117.716 331.791ZM123.527 325.98L123.527 320.169L129.338 320.169L129.338 325.98L123.527 325.98Z" fill="#53A1A1" fill-opacity="0.8"/>
<path d="M495.368 254.25C498.316 267.3 507.408 270.345 515.027 273.361L516 270.621L512.611 269.243C512.861 268.547 513.053 267.822 513.053 267.3C513.053 251.35 488 247 488 247C490.947 248.45 491.316 258.6 492.789 265.85C494.263 273.1 500.526 276 503.474 276C506.421 276 509 273.463 509 273.463C495.368 268.75 495.368 254.25 495.368 254.25Z" fill="#53A1A1"/>
<path d="M441.368 381.25C444.316 394.3 453.408 397.345 461.027 400.361L462 397.621L458.611 396.243C458.861 395.547 459.053 394.822 459.053 394.3C459.053 378.35 434 374 434 374C436.947 375.45 437.316 385.6 438.789 392.85C440.263 400.1 446.526 403 449.474 403C452.421 403 455 400.463 455 400.463C441.368 395.75 441.368 381.25 441.368 381.25Z" fill="#53A1A1"/>
<path d="M872.368 315.25C875.316 328.3 884.408 331.345 892.027 334.361L893 331.621L889.611 330.243C889.861 329.547 890.053 328.822 890.053 328.3C890.053 312.35 865 308 865 308C867.947 309.45 868.316 319.6 869.789 326.85C871.263 334.1 877.526 337 880.474 337C883.421 337 886 334.463 886 334.463C872.368 329.75 872.368 315.25 872.368 315.25Z" fill="#53A1A1"/>
<path d="M489.368 151.25C492.316 164.3 501.408 167.345 509.027 170.361L510 167.621L506.611 166.243C506.861 165.547 507.053 164.822 507.053 164.3C507.053 148.35 482 144 482 144C484.947 145.45 485.316 155.6 486.789 162.85C488.263 170.1 494.526 173 497.474 173C500.421 173 503 170.463 503 170.463C489.368 165.75 489.368 151.25 489.368 151.25Z" fill="#53A1A1"/>
<path d="M48.3684 359.25C51.3158 372.3 60.4084 375.345 68.0274 378.361L69 375.621L65.6105 374.243C65.8611 373.547 66.0526 372.822 66.0526 372.3C66.0526 356.35 41 352 41 352C43.9474 353.45 44.3158 363.6 45.7895 370.85C47.2632 378.1 53.5263 381 56.4737 381C59.4211 381 62 378.463 62 378.463C48.3684 373.75 48.3684 359.25 48.3684 359.25Z" fill="#53A1A1"/>
<path d="M866.368 212.25C869.316 225.3 878.408 228.345 886.027 231.361L887 228.621L883.611 227.243C883.861 226.547 884.053 225.822 884.053 225.3C884.053 209.35 859 205 859 205C861.947 206.45 862.316 216.6 863.789 223.85C865.263 231.1 871.526 234 874.474 234C877.421 234 880 231.463 880 231.463C866.368 226.75 866.368 212.25 866.368 212.25Z" fill="#53A1A1"/>
<path d="M443.368 177.25C446.316 190.3 455.408 193.345 463.027 196.361L464 193.621L460.611 192.243C460.861 191.547 461.053 190.822 461.053 190.3C461.053 174.35 436 170 436 170C438.947 171.45 439.316 181.6 440.789 188.85C442.263 196.1 448.526 199 451.474 199C454.421 199 457 196.463 457 196.463C443.368 191.75 443.368 177.25 443.368 177.25Z" fill="#53A1A1"/>
<path d="M440.368 62.25C443.316 75.3 452.408 78.345 460.027 81.361L461 78.6205L457.611 77.243C457.861 76.547 458.053 75.822 458.053 75.3C458.053 59.35 433 55 433 55C435.947 56.45 436.316 66.6 437.789 73.85C439.263 81.1 445.526 84 448.474 84C451.421 84 454 81.4625 454 81.4625C440.368 76.75 440.368 62.25 440.368 62.25Z" fill="#53A1A1"/>
<path d="M820.368 238.25C823.316 251.3 832.408 254.345 840.027 257.361L841 254.621L837.611 253.243C837.861 252.547 838.053 251.822 838.053 251.3C838.053 235.35 813 231 813 231C815.947 232.45 816.316 242.6 817.789 249.85C819.263 257.1 825.526 260 828.474 260C831.421 260 834 257.463 834 257.463C820.368 252.75 820.368 238.25 820.368 238.25Z" fill="#53A1A1"/>
<path d="M807.199 400.781L807.199 426.93C807.199 427.316 807.352 427.685 807.624 427.958C807.897 428.23 808.266 428.383 808.652 428.383L834.801 428.383C835.186 428.383 835.556 428.23 835.828 427.958C836.101 427.685 836.254 427.316 836.254 426.93L836.254 400.781C836.254 400.396 836.101 400.026 835.828 399.754C835.556 399.481 835.186 399.328 834.801 399.328L808.652 399.328C808.266 399.328 807.897 399.481 807.624 399.754C807.352 400.026 807.199 400.396 807.199 400.781ZM815.915 402.234L815.915 408.045L821.726 408.045L821.726 402.234L827.537 402.234L827.537 408.045L833.348 408.045L833.348 413.856L827.537 413.856L827.537 419.667L833.348 419.667L833.348 425.478L827.537 425.478L827.537 419.667L821.726 419.667L821.726 425.478L815.915 425.478L815.915 419.667L810.104 419.667L810.104 413.856L815.915 413.856L815.915 408.045L810.104 408.045L810.104 402.234L815.915 402.234Z" fill="#53A1A1" fill-opacity="0.8"/>
<path d="M815.915 419.667L815.915 413.856L821.726 413.856L821.726 419.667L815.915 419.667ZM821.726 413.856L821.726 408.045L827.537 408.045L827.537 413.856L821.726 413.856Z" fill="#53A1A1" fill-opacity="0.8"/>
<path d="M549.368 406.25C552.316 419.3 561.408 422.345 569.027 425.361L570 422.621L566.611 421.243C566.861 420.547 567.053 419.822 567.053 419.3C567.053 403.35 542 399 542 399C544.947 400.45 545.316 410.6 546.789 417.85C548.263 425.1 554.526 428 557.474 428C560.421 428 563 425.463 563 425.463C549.368 420.75 549.368 406.25 549.368 406.25Z" fill="#53A1A1"/>
</svg>
