<svg xmlns="http://www.w3.org/2000/svg" xmlns:xlink="http://www.w3.org/1999/xlink" version="1.1" x="0px" y="0px" viewBox="0 0 100 125" style="enable-background:new 0 0 100 100;" xml:space="preserve">
    <g>
        <path fill="#DDA0DD"
            d="M98.4,48.5L52.3,2.4c-0.4-0.4-1-0.7-1.7-0.7c-0.6,0-1.2,0.2-1.7,0.7L2.8,48.5c-0.4,0.4-0.7,1-0.7,1.7   c0,0.6,0.2,1.2,0.7,1.7L49,98c0.5,0.5,1.1,0.7,1.7,0.7s1.2-0.2,1.7-0.7l46.1-46.1C99.3,50.9,99.3,49.4,98.4,48.5z M50.6,93   L7.8,50.2L50.6,7.3l42.9,42.9L50.6,93z" />
        <path fill="#DDA0DD"
            d="M49.8,17.9L18.4,49.3c-0.5,0.5-0.5,1.2,0,1.7l31.4,31.4c0.2,0.2,0.5,0.3,0.8,0.3s0.6-0.1,0.8-0.3L82.9,51   c0.5-0.5,0.5-1.2,0-1.7L51.4,17.9C51,17.5,50.2,17.5,49.8,17.9z M80.4,50.2L50.6,79.9L20.8,50.2l29.8-29.8L80.4,50.2z" />
    </g>
</svg>