<svg xmlns="http://www.w3.org/2000/svg" xmlns:xlink="http://www.w3.org/1999/xlink" version="1.1" x="0px" y="0px" viewBox="0 0 100 125" style="enable-background:new 0 0 100 100;" xml:space="preserve">
    <g>
        <path fill="#FF00FF"
            d="M98.1,48.4L51.6,1.9c-0.9-0.9-2.4-0.9-3.3,0L1.8,48.4c-0.9,0.9-0.9,2.4,0,3.3l46.5,46.5c0.5,0.5,1.1,0.7,1.7,0.7   s1.2-0.2,1.7-0.7l46.5-46.5c0.4-0.4,0.7-1,0.7-1.7C98.8,49.4,98.5,48.8,98.1,48.4z M49.9,93.2L6.8,50L49.9,6.9L93.1,50L49.9,93.2z" />
        <path fill="#FF00FF" d="M49.1,17.6L17.5,49.2c-0.5,0.5-0.5,1.2,0,1.7l31.6,31.6c0.2,0.2,0.5,0.3,0.8,0.3c0.3,0,0.6-0.1,0.8-0.3l31.6-31.6   c0.5-0.5,0.5-1.2,0-1.7L50.8,17.6C50.3,17.1,49.6,17.1,49.1,17.6z" />
    </g>
</svg>