<svg xmlns="http://www.w3.org/2000/svg" xmlns:xlink="http://www.w3.org/1999/xlink" xmlns:xodm="http://www.corel.com/coreldraw/odm/2003" xml:space="preserve" version="1.1"
  style="shape-rendering:geometricPrecision;text-rendering:geometricPrecision;image-rendering:optimizeQuality;" viewBox="0 0 8.4666 10.58325" x="0px" y="0px" fill-rule="evenodd" clip-rule="evenodd">
  <defs>
    <style type="text/css">
      .fil0 {
        fill: yellow;
        fill-rule: nonzero
      }
    </style>
  </defs>
  <g>
    <path class="fil0" fill="yellow"
      d="M1.8968 3.1152l0.269 0 0 -0.7768c0,-0.5123 0.2518,-0.98 0.6257,-1.3246 0.3936,-0.3626 0.9256,-0.5905 1.4418,-0.5905 0.5162,0 1.0481,0.2279 1.4417,0.5905 0.3739,0.3446 0.6257,0.8123 0.6257,1.3246l0 0.7768 0.2693 0c0.1735,0 0.3318,0.0712 0.4464,0.1859 0.1148,0.1142 0.1859,0.2724 0.1859,0.4465l0 3.6634c0,0.1736 -0.0711,0.3315 -0.186,0.4466 -0.115,0.1147 -0.2728,0.1857 -0.4463,0.1857l-4.6732 0c-0.1741,0 -0.3323,-0.0711 -0.4468,-0.1856l-0.0072 -0.0079c-0.1103,-0.114 -0.1784,-0.2691 -0.1784,-0.4388l0 -3.6634c0,-0.1741 0.0711,-0.3323 0.1856,-0.4468 0.1145,-0.1145 0.2727,-0.1856 0.4468,-0.1856zm2.6775 1.5652c-0.0872,-0.0872 -0.2079,-0.1413 -0.341,-0.1413 -0.1331,0 -0.2537,0.0541 -0.3409,0.1413 -0.0871,0.0871 -0.1412,0.2078 -0.1412,0.3409 0,0.0886 0.0237,0.1716 0.0648,0.2423 0.0413,0.071 0.1004,0.1307 0.171,0.1726 0.0427,0.0205 0.0722,0.0641 0.0722,0.1146l0 0.8943c0,0.0455 0.0176,0.0871 0.0487,0.1205 0.0341,0.034 0.0777,0.0537 0.1254,0.0537 0.048,0 0.0917,-0.0195 0.1229,-0.0508 0.0318,-0.0317 0.0513,-0.0754 0.0513,-0.1234l0 -0.8943c0.0004,-0.044 0.0235,-0.0868 0.0645,-0.1101 0.074,-0.0421 0.1359,-0.1035 0.1787,-0.1771 0.0411,-0.0707 0.0648,-0.1537 0.0648,-0.2423 0,-0.1331 -0.0541,-0.2538 -0.1412,-0.3409zm-1.4912 -1.5652l2.3002 0 0 -0.7768c0,-0.2495 -0.1427,-0.486 -0.3472,-0.6661 -0.2297,-0.2023 -0.5333,-0.3316 -0.8028,-0.3316 -0.2695,0 -0.5733,0.1293 -0.803,0.3316 -0.2045,0.1801 -0.3472,0.4165 -0.3472,0.6661l0 0.7768z" />
  </g>
  </svg>