<svg xmlns="http://www.w3.org/2000/svg" xmlns:xlink="http://www.w3.org/1999/xlink" version="1.1" x="0px" y="0px" viewBox="0 0 100 125" style="enable-background:new 0 0 100 100;" xml:space="preserve">
    <path fill="yellow"
        d="M69.0522308,17.8851871c-3.6226273-3.6229324-9.4624863-3.592721-13.0552063,0l-0.0001831,0.0001812  c-3.5985336,3.5983524-3.617485,9.4377861,0.0001831,13.0547867l8.7035141,8.7034531  c3.5993195,3.5995026,9.456192,3.5991364,13.0553284,0c3.5995026-3.5991402,3.5995026-9.4558907,0-13.0550289L69.0522308,17.8851871  z M73.4039917,35.2920303c-0.0618744,0.0618782-0.1268387,0.1183662-0.1921692,0.1737633  c-1.2085114,1.0211296-3.02034,0.9654884-4.1597748-0.1737633l-8.7034492-8.7033901  c-1.2016716-1.2019138-1.1968269-3.1548691,0-4.351757c0,0,0,0,0.0001831-0.0001812  c1.1869583-1.1873226,3.1405182-1.2103291,4.3515739,0l8.7036362,8.7036343  C74.6037827,32.140007,74.6039658,34.0920563,73.4039917,35.2920303z" />
    <path fill="yellow"
        d="M86.459137,17.8848228l-8.7034531-8.7036333c-8.3981323-8.3981314-22.0636177-8.3983736-30.4620552,0  c-7.6598587,7.6598616-8.3333473,19.7009048-2.0211258,28.1311836L8.1281214,74.4576035  c-1.2016702,1.2016068-1.2016702,3.1500244,0,4.3516312l8.703454,8.7034531c1.2014885,1.2017288,3.1500244,1.2019119,4.351757,0  l2.1758175-2.1758194l10.8792725,10.8793335c1.2015457,1.2016068,3.1500854,1.2018509,4.3517532,0l17.4070892-17.4071503  c1.2016716-1.2016068,1.2016716-3.1500244,0-4.3516922L45.1179924,63.5780258l13.2084465-13.2084465  c8.3714294,6.2877617,20.4047241,5.7056351,28.1328812-2.0227623C94.8773117,39.9288902,94.8782196,26.3037205,86.459137,17.8848228  z M49.4694481,76.6335983l-4.351696,4.3516998l-2.1759987-2.1756363c-1.2014885-1.2015533-3.1500282-1.2017365-4.351757,0  c-1.2014885,1.2016678-1.2014885,3.1500244,0,4.3517532l2.1756363,2.1756363l-4.351635,4.3517609l-8.703455-8.7035141  c1.6212997-1.6212997,11.7593937-11.7593994,13.05509-13.055275L49.4694481,76.6335983z M82.1073837,43.9954834  c-6.0131378,6.0129547-15.7448654,6.0135612-21.7584229,0c-1.200943-1.2010651-3.1503868-1.2014885-4.351696,0  c0,0-36.0489655,36.0487823-36.989872,36.9896317l-4.3516359-4.3516998l36.9896278-36.9898071  c1.2016106-1.2017326,1.2016106-3.1500282,0-4.351757c-5.9988441-5.9989681-5.9988441-15.7597561,0-21.7586021  c5.998909-5.9987864,15.7595749-5.9987864,21.758606,0l8.703392,8.7036343  C88.1202164,28.2494736,88.1211243,37.981987,82.1073837,43.9954834z" />
</svg>